<svg width="150" height="150" viewBox="0 0 150 150" fill="none" xmlns="http://www.w3.org/2000/svg">
<path d="M139.471 39.7521H135.362V96.9687C135.362 105.877 131.269 113.933 123.062 113.933H42.6582V116.653C42.6582 124.529 49.7281 132.48 56.9883 132.48H118.461L141.979 150L138.568 132.48H139.471C146.726 132.48 150 124.548 150 116.653V53.3345C150 45.4583 146.726 39.7521 139.471 39.7521Z" fill="white"/>
<path d="M111.06 0H17.6724C9.45584 0 0 9.24863 0 18.1634V89.8774C0 98.0874 8.0116 104.016 15.6963 104.931L10.6951 128.986L42.7416 105.098H111.06C119.276 105.098 126.858 98.786 126.858 89.8774V31.8571V18.1634C126.858 9.24863 119.271 0 111.06 0ZM31.9195 60.5365C27.2599 60.5365 23.4835 55.7514 23.4835 49.8474C23.4835 43.9434 27.2599 39.1583 31.9195 39.1583C36.5743 39.1583 40.3556 43.9434 40.3556 49.8474C40.3556 55.7514 36.5743 60.5365 31.9195 60.5365ZM63.4292 60.5365C58.7696 60.5365 54.9932 55.7514 54.9932 49.8474C54.9932 43.9434 58.7696 39.1583 63.4292 39.1583C68.0889 39.1583 71.8653 43.9434 71.8653 49.8474C71.8653 55.7514 68.0889 60.5365 63.4292 60.5365ZM94.9438 60.5365C90.2842 60.5365 86.5028 55.7514 86.5028 49.8474C86.5028 43.9434 90.2842 39.1583 94.9438 39.1583C99.5937 39.1583 103.38 43.9434 103.38 49.8474C103.38 55.7514 99.5937 60.5365 94.9438 60.5365Z" fill="white"/>
</svg>
