<svg width="150" height="150" viewBox="0 0 150 150" fill="none" xmlns="http://www.w3.org/2000/svg">
<g clip-path="url(#clip0)">
<path d="M115.625 150H15.625C7.0125 150 0 142.994 0 134.375V46.875C0 38.2563 7.0125 31.25 15.625 31.25H59.375C61.1 31.25 62.5 32.65 62.5 34.375C62.5 36.1 61.1 37.5 59.375 37.5H15.625C10.4563 37.5 6.25 41.7063 6.25 46.875V134.375C6.25 139.544 10.4563 143.75 15.625 143.75H114.331L143.75 114.331V46.875C143.75 41.7063 139.544 37.5 134.375 37.5H90.625C88.9 37.5 87.5 36.1 87.5 34.375C87.5 32.65 88.9 31.25 90.625 31.25H134.375C142.988 31.25 150 38.2563 150 46.875V115.625C150 116.456 149.669 117.25 149.087 117.838L117.838 149.088C117.25 149.669 116.456 150 115.625 150ZM146.875 115.625H146.938H146.875Z" fill="white"/>
<path d="M115.625 150C113.9 150 112.5 148.6 112.5 146.875V115.625C112.5 113.9 113.9 112.5 115.625 112.5H146.875C148.6 112.5 150 113.9 150 115.625C150 117.35 148.6 118.75 146.875 118.75H118.75V146.875C118.75 148.6 117.35 150 115.625 150Z" fill="white"/>
<path d="M75 56.25C73.275 56.25 71.875 54.85 71.875 53.125V21.875C71.875 20.15 73.275 18.75 75 18.75C76.725 18.75 78.125 20.15 78.125 21.875V53.125C78.125 54.85 76.725 56.25 75 56.25Z" fill="white"/>
<path d="M75 25C68.1062 25 62.5 19.3937 62.5 12.5C62.5 5.60624 68.1062 -7.62939e-06 75 -7.62939e-06C81.8937 -7.62939e-06 87.5 5.60624 87.5 12.5C87.5 19.3937 81.8937 25 75 25ZM75 6.24999C71.5562 6.24999 68.75 9.04999 68.75 12.5C68.75 15.95 71.5562 18.75 75 18.75C78.4437 18.75 81.25 15.95 81.25 12.5C81.25 9.04999 78.4437 6.24999 75 6.24999Z" fill="white"/>
<path d="M121.875 74.9999H28.125C26.4 74.9999 25 73.5999 25 71.8749C25 70.1499 26.4 68.7499 28.125 68.7499H121.875C123.6 68.7499 125 70.1499 125 71.8749C125 73.5999 123.6 74.9999 121.875 74.9999Z" fill="white"/>
<path d="M121.875 100H28.125C26.4 100 25 98.6 25 96.875C25 95.15 26.4 93.75 28.125 93.75H121.875C123.6 93.75 125 95.15 125 96.875C125 98.6 123.6 100 121.875 100Z" fill="white"/>
<path d="M96.875 125H28.125C26.4 125 25 123.6 25 121.875C25 120.15 26.4 118.75 28.125 118.75H96.875C98.6 118.75 100 120.15 100 121.875C100 123.6 98.6 125 96.875 125Z" fill="white"/>
</g>
<defs>
<clipPath id="clip0">
<rect width="150" height="150" fill="white"/>
</clipPath>
</defs>
</svg>
