<svg width="150" height="150" viewBox="0 0 150 150" fill="none" xmlns="http://www.w3.org/2000/svg">
<g clip-path="url(#clip0)">
<path d="M146.692 130.708L119.534 103.55C120.281 102.413 120.155 100.872 119.155 99.8723C118.156 98.8733 116.614 98.747 115.478 99.4935L108.231 92.2463C113.647 84.2052 117.057 74.8914 118.044 65.1775C119.395 51.8732 116.177 38.3869 108.985 27.2023C108.11 25.8414 106.297 25.448 104.937 26.3228C103.576 27.1979 103.183 29.0105 104.057 30.371C117.508 51.2866 114.487 79.2511 96.8746 96.8635C76.0885 117.65 42.267 117.65 21.4806 96.8635C0.694483 76.0777 0.694483 42.2562 21.4806 21.4697C39.1118 3.83858 66.1859 0.715246 87.3195 13.8728C88.6923 14.7274 90.4991 14.3078 91.3543 12.9344C92.2094 11.5612 91.789 9.7548 90.4159 8.89962C79.2631 1.95626 65.8888 -1.08183 52.7542 0.344054C39.4191 1.7922 26.8417 7.82384 17.3377 17.3272C-5.73237 40.3976 -5.73237 77.936 17.3377 101.006C28.8731 112.541 44.0251 118.309 59.1775 118.309C70.7213 118.309 82.2628 114.957 92.2071 108.262L99.4179 115.473C98.3345 116.621 98.3518 118.429 99.4751 119.552C100.047 120.125 100.797 120.411 101.546 120.411C102.269 120.411 102.991 120.142 103.554 119.61L130.672 146.728C132.855 148.911 135.724 150 138.602 150C141.505 150 144.417 148.889 146.636 146.671C151.052 142.254 151.078 135.093 146.692 130.708ZM98.2516 106.022L105.987 98.2873L111.292 103.593L103.557 111.328L98.2516 106.022ZM142.493 142.528C140.36 144.661 136.916 144.687 134.815 142.585L107.7 115.47L115.435 107.735L142.55 134.85C144.651 136.952 144.625 140.396 142.493 142.528Z" fill="white"/>
<path d="M101.087 17.3968L101.024 17.3332C99.8834 16.1859 98.0286 16.1804 96.8811 17.3206C95.7338 18.4608 95.728 20.3156 96.8685 21.4632L96.9446 21.5397C97.5168 22.1118 98.2662 22.3978 99.0159 22.3978C99.7656 22.3978 100.515 22.1118 101.087 21.5397C102.231 20.3959 102.231 18.5411 101.087 17.3968Z" fill="white"/>
<path d="M59.1777 14.0569C34.3041 14.0569 14.0679 34.2932 14.0679 59.1668C14.0679 84.0404 34.3041 104.277 59.1777 104.277C84.0514 104.277 104.288 84.0404 104.288 59.1668C104.288 34.2932 84.0514 14.0569 59.1777 14.0569ZM59.1777 98.4182C37.5344 98.4182 19.9264 80.8102 19.9264 59.1668C19.9264 37.5234 37.5344 19.9154 59.1777 19.9154C80.8211 19.9154 98.4291 37.5234 98.4291 59.1668C98.4291 80.8102 80.8211 98.4182 59.1777 98.4182Z" fill="white"/>
<path d="M70.3246 55.3603C72.1492 52.9884 73.2379 50.0224 73.2379 46.8053V42.9686C73.2379 35.2157 66.9306 28.9084 59.1777 28.9084C51.4249 28.9084 45.1176 35.2157 45.1176 42.9686V46.8053C45.1176 50.0224 46.206 52.9887 48.0309 55.3603C38.7145 57.1172 31.6431 65.3112 31.6431 75.131V76.6445C31.6431 78.2622 32.9544 79.5736 34.5722 79.5736H83.7827C85.4005 79.5736 86.7118 78.2622 86.7118 76.6445V75.131C86.7124 65.3115 79.641 57.1175 70.3246 55.3603ZM50.9761 42.9686C50.9761 38.4463 54.6555 34.7669 59.1777 34.7669C63.7 34.7669 67.3794 38.4463 67.3794 42.9686V46.8053C67.3794 51.3276 63.7 55.007 59.1777 55.007C54.6555 55.007 50.9761 51.3276 50.9761 46.8053V42.9686ZM37.5713 73.7151C38.2844 66.5113 44.3787 60.8654 51.7671 60.8654H66.5887C73.9771 60.8654 80.0714 66.5113 80.7845 73.7151H37.5713Z" fill="white"/>
<path d="M129.581 3.51183C127.964 3.51183 126.652 4.82315 126.652 6.44093V10.0819C126.652 11.6994 127.964 13.011 129.581 13.011C131.199 13.011 132.511 11.6997 132.511 10.0819V6.44122C132.511 4.82315 131.199 3.51183 129.581 3.51183Z" fill="white"/>
<path d="M129.581 20.961C127.964 20.961 126.652 22.2724 126.652 23.8901V27.5311C126.652 29.1489 127.964 30.4602 129.581 30.4602C131.199 30.4602 132.511 29.1489 132.511 27.5311V23.8904C132.511 22.2727 131.199 20.961 129.581 20.961Z" fill="white"/>
<path d="M140.127 14.0569H136.486C134.868 14.0569 133.556 15.3683 133.556 16.986C133.556 18.6038 134.868 19.9151 136.486 19.9151H140.127C141.744 19.9151 143.056 18.6038 143.056 16.986C143.056 15.3683 141.744 14.0569 140.127 14.0569Z" fill="white"/>
<path d="M122.677 14.0569H119.036C117.418 14.0569 116.107 15.3683 116.107 16.986C116.107 18.6038 117.418 19.9151 119.036 19.9151H122.677C124.295 19.9151 125.606 18.6038 125.606 16.986C125.606 15.3683 124.295 14.0569 122.677 14.0569Z" fill="white"/>
<path d="M18.1457 120.705C16.5279 120.705 15.2166 122.017 15.2166 123.635V127.276C15.2166 128.893 16.5279 130.205 18.1457 130.205C19.7634 130.205 21.0748 128.893 21.0748 127.276V123.635C21.0748 122.017 19.7634 120.705 18.1457 120.705Z" fill="white"/>
<path d="M18.1457 138.155C16.5279 138.155 15.2166 139.466 15.2166 141.084V144.725C15.2166 146.343 16.5279 147.654 18.1457 147.654C19.7634 147.654 21.0748 146.343 21.0748 144.725V141.084C21.0748 139.466 19.7634 138.155 18.1457 138.155Z" fill="white"/>
<path d="M28.6907 131.251H25.0497C23.4319 131.251 22.1206 132.562 22.1206 134.18C22.1206 135.797 23.4319 137.109 25.0497 137.109H28.6907C30.3085 137.109 31.6198 135.797 31.6198 134.18C31.6198 132.562 30.3085 131.251 28.6907 131.251Z" fill="white"/>
<path d="M11.2415 131.251H7.60049C5.98272 131.251 4.67139 132.562 4.67139 134.18C4.67139 135.797 5.98272 137.109 7.60049 137.109H11.2415C12.8593 137.109 14.1706 135.797 14.1706 134.18C14.1706 132.562 12.8593 131.251 11.2415 131.251Z" fill="white"/>
</g>
<defs>
<clipPath id="clip0">
<rect width="150" height="150" fill="white"/>
</clipPath>
</defs>
</svg>
