<svg width="230" height="227" viewBox="0 0 230 227" fill="none" xmlns="http://www.w3.org/2000/svg">
<path d="M230 115C230 178.513 178.513 226.5 115 226.5C51.4873 226.5 0 184 0 115C0 51.4873 37.5 0 115 0C198 0 230 51.4873 230 115Z" fill="#C2C8E1"/>
<mask id="mask0" mask-type="alpha" maskUnits="userSpaceOnUse" x="0" y="0" width="230" height="227">
<path d="M230 115C230 178.513 178.513 226.5 115 226.5C51.4873 226.5 0 184 0 115C0 51.4873 37.5 0 115 0C198 0 230 51.4873 230 115Z" fill="#C2C8E1"/>
</mask>
<g mask="url(#mask0)">
<path d="M105.42 102.665L180.019 13.1996L223.2 35.2066L174.224 75.5524C178.211 79.3341 171.277 109.597 171.087 120.734C170.896 131.871 164.16 130.868 160.08 132.486C156.817 133.78 153.625 128.212 152.438 125.266C147.278 130.791 144.931 141.785 135.587 143.082C124.756 144.584 108.871 111.501 105.42 102.665Z" fill="#6D493E"/>
<g style="mix-blend-mode:multiply" opacity="0.4">
<path d="M105.42 102.665L180.019 13.1996L223.2 35.2066L174.224 75.5524C178.211 79.3341 171.277 109.597 171.087 120.734C170.896 131.871 164.16 130.868 160.08 132.486C156.817 133.78 153.625 128.212 152.438 125.266C147.278 130.791 144.931 141.785 135.587 143.082C124.756 144.584 108.871 111.501 105.42 102.665Z" fill="url(#paint0_linear)"/>
</g>
<g style="mix-blend-mode:multiply" opacity="0.4">
<path d="M105.42 102.665L180.019 13.1996L223.2 35.2066L174.224 75.5524C178.211 79.3341 171.277 109.597 171.087 120.734C170.896 131.871 164.16 130.868 160.08 132.486C156.817 133.78 153.625 128.212 152.438 125.266C147.278 130.791 144.931 141.785 135.587 143.082C124.756 144.584 108.871 111.501 105.42 102.665Z" fill="url(#paint1_linear)"/>
</g>
<path d="M89.6979 110.534L-2.96703 168.07L13.1218 213.788L59.6037 170.592C62.8235 175.045 93.7389 172.184 104.803 173.471C115.867 174.758 115.765 167.949 117.91 164.12C119.625 161.056 114.529 157.155 111.767 155.587C117.927 151.206 129.135 150.337 131.659 141.247C134.583 130.711 97.9987 115.125 89.6979 110.534Z" fill="#C8AA7D"/>
<path d="M110.603 155.976C108.322 154.531 105.228 154.408 102.653 154.051C100.246 153.718 97.4453 153.854 95.2487 152.67C94.5208 152.277 93.9365 151.57 93.3376 150.991C92.6468 150.324 91.8755 149.542 91.5337 148.582C90.7932 146.501 92.708 143.77 93.6487 142.197" stroke="#955914" stroke-linecap="round" stroke-linejoin="round"/>
<path d="M97.7556 135.928L92.5304 144.597L95.9143 143.391L103.028 143.579L108.322 145.474L109.429 144.323L104.676 140.572L97.7556 135.928Z" fill="#AB8B5B"/>
<path d="M92.5304 144.596C94.6215 143.51 99.7893 141.311 106.438 144.885C106.447 144.886 110.5 145.56 110.13 145.314" stroke="#955914" stroke-linecap="round" stroke-linejoin="round"/>
<path d="M95.9999 136C98.4313 136.125 101 137 105.823 141.214C105.831 141.219 109.707 144.91 109.5 144.5" stroke="#955914" stroke-linecap="round" stroke-linejoin="round"/>
<path d="M109.608 144.643C110.499 142.312 113.591 140.631 117.845 138.218" stroke="#955914" stroke-linecap="round" stroke-linejoin="round"/>
<path d="M152.977 124.164C151.848 121.712 152.136 118.629 152.123 116.03C152.112 113.599 152.618 110.841 151.736 108.507C151.443 107.734 150.82 107.061 150.326 106.391C149.756 105.617 149.083 104.749 148.176 104.283C146.212 103.273 143.251 104.809 141.567 105.533" stroke="#3A1616" stroke-linecap="round" stroke-linejoin="round"/>
<path d="M134.809 108.773L144.094 104.743L141.596 110.668L141.694 115.013L142.871 120.511L141.583 121.456L138.495 116.247L134.809 108.773Z" fill="#513228"/>
<path d="M144.094 104.743C142.74 106.672 139.875 111.502 142.536 118.566C142.536 118.575 142.463 121.266 142.269 120.867" stroke="#3A1616" stroke-linecap="round" stroke-linejoin="round"/>
<path d="M135.252 109.087C135.054 111.514 137.214 112.835 139.619 118.572C139.623 118.581 141.549 121.842 141.17 121.582" stroke="#3A1616" stroke-linecap="round" stroke-linejoin="round"/>
<path d="M143.045 121.12C140.698 121.766 138.606 124.593 135.632 128.474" stroke="#3A1616" stroke-linecap="round" stroke-linejoin="round"/>
<g style="mix-blend-mode:multiply" opacity="0.2">
<path d="M89.6979 110.534L-2.96703 168.07L13.1218 213.788L59.6037 170.592C62.8235 175.045 93.7389 172.184 104.803 173.471C115.867 174.758 115.765 167.949 117.91 164.12C119.625 161.056 114.529 157.155 111.767 155.587C117.927 151.206 129.135 150.337 131.659 141.247C134.583 130.711 97.9987 115.125 89.6979 110.534Z" fill="url(#paint2_linear)"/>
</g>
<g style="mix-blend-mode:multiply" opacity="0.2">
<path d="M89.698 110.534L-2.967 168.07L13.1218 213.788L59.6038 170.592C62.8235 175.045 93.7389 172.184 104.803 173.471C115.867 174.758 115.765 167.949 117.91 164.12C119.625 161.056 114.529 157.155 111.767 155.587C117.927 151.206 129.135 150.337 131.659 141.247C134.584 130.711 97.9988 115.125 89.698 110.534Z" fill="url(#paint3_linear)"/>
</g>
</g>
<defs>
<linearGradient id="paint0_linear" x1="156.217" y1="82.8531" x2="86.019" y2="142.574" gradientUnits="userSpaceOnUse">
<stop stop-color="#C09696"/>
<stop offset="1" stop-color="#6D493E" stop-opacity="0"/>
</linearGradient>
<linearGradient id="paint1_linear" x1="156.217" y1="82.8531" x2="86.019" y2="142.574" gradientUnits="userSpaceOnUse">
<stop stop-color="#6D493E"/>
<stop offset="1" stop-color="#6D493E" stop-opacity="0"/>
</linearGradient>
<linearGradient id="paint2_linear" x1="48.3028" y1="173.184" x2="153.63" y2="144.959" gradientUnits="userSpaceOnUse">
<stop stop-color="#E1B3A4"/>
<stop offset="1" stop-color="#E1B3A4" stop-opacity="0"/>
</linearGradient>
<linearGradient id="paint3_linear" x1="48.3029" y1="173.184" x2="153.63" y2="144.959" gradientUnits="userSpaceOnUse">
<stop stop-color="#A68CA3"/>
<stop offset="1" stop-color="#E1B3A4" stop-opacity="0"/>
</linearGradient>
</defs>
</svg>
