<svg width="18" height="18" viewBox="0 0 18 18" fill="none" xmlns="http://www.w3.org/2000/svg">
<path d="M13.2188 1.05469C12.242 1.05469 11.3465 1.3642 10.5572 1.97466C9.80044 2.5599 9.29661 3.30532 9 3.84736C8.70339 3.30528 8.19956 2.5599 7.44282 1.97466C6.6535 1.3642 5.758 1.05469 4.78125 1.05469C2.05552 1.05469 0 3.28419 0 6.24073C0 9.43481 2.5644 11.6202 6.44657 14.9285C7.10582 15.4903 7.85306 16.1271 8.62973 16.8063C8.73211 16.896 8.86359 16.9453 9 16.9453C9.13641 16.9453 9.26789 16.896 9.37027 16.8063C10.147 16.1271 10.8942 15.4903 11.5539 14.9281C15.4356 11.6202 18 9.43481 18 6.24073C18 3.28419 15.9445 1.05469 13.2188 1.05469Z" fill="white"/>
</svg>
