<svg width="596" height="519" viewBox="0 0 596 519" fill="none" xmlns="http://www.w3.org/2000/svg">
<g opacity="0.6">
<path d="M538.465 259.169C538.465 367.985 461.901 443.804 330.506 443.804C199.111 443.804 129.822 355.591 129.822 246.774C129.822 137.958 216.655 76.6705 348.05 76.6705C479.445 76.6705 538.465 150.352 538.465 259.169Z" fill="#C2C8E1"/>
<path d="M261.529 188.876C246.878 160.992 217.893 159.692 217.893 159.692C217.893 159.692 189.648 155.624 171.529 198.092C154.641 237.675 131.333 275.894 167.777 285.16L174.36 262.082L178.436 286.878C183.625 287.299 188.831 287.399 194.029 287.178C233.057 285.759 270.226 287.594 269.029 271.819C267.438 250.848 275.626 215.706 261.529 188.876Z" fill="#2F2E41"/>
<path d="M201.394 247.235C206.442 259.813 209.626 274.807 211.527 291.461L252.057 288.608C242.739 273.735 239.645 256.664 243.191 237.248L201.394 247.235Z" fill="#FFB8B8"/>
<path opacity="0.2" d="M201.394 247.235C206.442 259.813 209.626 274.807 211.527 291.461L252.057 288.608C242.739 273.735 239.645 256.664 243.191 237.248L201.394 247.235Z" fill="black"/>
<path d="M13.3456 486.724C13.3456 486.724 -7.63131 499.38 3.01336 510.186C13.658 520.992 27.7191 495.883 27.7191 495.883L13.3456 486.724Z" fill="#FFB8B8"/>
<path d="M269.79 449.817L269.462 467.108L268.763 504.468V504.474L268.559 515.294H134.415L139.867 481.195L139.873 481.17L144.754 450.65L146.933 436.982V436.976L257.125 419.857L269.79 449.817Z" fill="#2F2E41"/>
<path d="M269.789 449.819L269.459 467.11C230.474 465.983 170.046 455.383 144.753 450.647L146.931 436.979L257.123 419.86L269.789 449.819Z" fill="#8165C9"/>
<path d="M221.026 259.361C238.514 259.361 252.69 243.393 252.69 223.695C252.69 203.997 238.514 188.029 221.026 188.029C203.538 188.029 189.362 203.997 189.362 223.695C189.362 243.393 203.538 259.361 221.026 259.361Z" fill="#FFB8B8"/>
<path d="M281.821 469.079C281.821 469.079 285.621 507.599 262.823 504.745L259.023 466.226L238.758 443.399L181.762 441.973L139.965 486.199C139.965 486.199 138.699 440.546 143.765 436.266C148.831 431.986 160.23 422 160.23 422V414.866L126.033 336.401C126.033 336.401 146.298 289.321 162.764 287.894L184.295 286.468C184.295 286.468 191.895 282.188 191.895 280.761C191.895 279.335 190.628 267.921 196.961 270.775C196.961 270.775 197.531 256.137 204.206 260.603C204.206 260.603 225.218 279.149 246.547 261.416C246.547 261.416 256.49 259.361 255.223 265.068C253.957 270.775 255.223 275.055 257.756 275.055C260.289 275.055 271.689 279.335 271.689 282.188C271.689 282.801 272.512 288.708 273.804 297.596V297.61C278.503 330.009 289.421 402.027 289.421 402.027C289.421 402.027 300.82 420.573 281.821 469.079Z" fill="#8165C9"/>
<path d="M134.899 329.267L126.033 336.401L44.9728 453.386L1.90948 491.905C1.90948 491.905 25.9743 487.626 20.908 510.452L169.097 414.866L134.899 329.267Z" fill="#8165C9"/>
<path d="M273.804 297.596V297.61C272.119 308.766 217.226 306.441 209.627 306.441C202.027 306.441 195.694 305.014 188.095 299.308C180.496 293.601 184.295 286.468 184.295 286.468C184.295 286.468 190.766 280.916 190.766 279.49C190.766 278.063 189.499 266.65 195.832 269.503C195.832 269.503 196.402 254.866 203.077 259.331C203.077 259.331 225.218 279.149 246.547 261.416C246.547 261.416 256.49 259.361 255.223 265.068C253.957 270.775 255.223 275.055 257.756 275.055C260.29 275.055 271.689 279.335 271.689 282.188C271.689 282.801 272.512 288.708 273.804 297.596Z" fill="#8165C9"/>
<path d="M267.256 244.382C267.256 244.382 257.123 220.129 246.99 231.542C236.858 242.955 258.39 260.075 258.39 260.075L267.256 244.382Z" fill="#FFB8B8"/>
<path d="M267.256 238.675C267.256 238.675 251.609 260.947 246.767 262.651C246.767 262.651 260.923 325.701 278.655 342.82L288.787 401.313C288.787 401.313 331.851 381.34 321.718 348.527C321.617 348.199 321.516 347.873 321.416 347.549C312.955 320.222 301.279 294.298 286.7 270.468L267.256 238.675Z" fill="#8165C9"/>
<path opacity="0.2" d="M258.894 304.734L290.054 401.313L278.655 342.82L258.894 304.734Z" fill="black"/>
<path d="M255.052 186.188L226.416 169.292L186.871 176.204L178.688 216.907L199.055 216.025L204.745 201.071V215.779L214.143 215.371L219.598 191.563L223.007 216.907L256.416 216.139L255.052 186.188Z" fill="#2F2E41"/>
<path d="M525.573 405.74L541.82 471.022C541.82 471.022 538.473 528.846 554.096 517.533C570.085 505.955 564.14 457.195 564.14 457.195L554.775 398.629L525.573 405.74Z" fill="#A0616A"/>
<path d="M534.255 222.609L547.672 237.722V309.73C547.672 309.73 555.564 323.065 553.986 326.621C552.407 330.176 550.829 330.176 552.407 332.843C553.986 335.51 555.564 337.288 553.986 339.066C552.407 340.844 552.407 345.289 553.986 347.067C555.564 348.845 558.721 351.512 556.354 354.179C553.986 356.846 550.829 355.068 553.986 364.847C557.143 374.626 562.668 377.293 561.089 380.849C559.511 384.405 559.511 393.295 559.511 393.295L525.573 398.629L518.47 298.173L534.255 222.609Z" fill="#5C81E2"/>
<path d="M561.089 392.406L521.627 394.184L523.205 412.853L557.932 405.741L561.089 392.406Z" fill="#3F3D56"/>
<path d="M452.569 129.71L447.833 183.049L495.977 191.05L499.529 160.38L503.08 129.71H452.569Z" fill="#A0616A"/>
<path opacity="0.1" d="M452.569 129.421L447.833 182.76L495.977 190.761L499.529 160.091L503.08 129.421H452.569Z" fill="black"/>
<path d="M347.995 383.516L374.829 448.412C374.829 448.412 379.565 478.638 386.668 479.527C393.771 480.416 400.874 448.412 400.874 448.412L391.403 431.521L380.354 383.516H347.995Z" fill="#A0616A"/>
<path d="M531.682 515.923H379.975C381.177 494.507 381.933 481.303 381.933 481.303L383.948 477.731L393.717 460.44L400.693 448.095L403.125 443.785L404.028 442.189L413.583 440.225L512.155 419.965C513.785 428.188 516.092 436.222 519.046 443.963C519.717 445.685 520.44 447.408 521.213 449.112C523.691 454.56 526.716 459.722 530.311 463.523C531.129 464.388 531.722 466.695 532.105 470.242C533.053 478.932 532.783 495.092 531.682 515.923Z" fill="#2F2E41"/>
<path d="M479.008 147.045C499.931 147.045 516.892 127.94 516.892 104.373C516.892 80.8067 499.931 61.702 479.008 61.702C458.086 61.702 441.125 80.8067 441.125 104.373C441.125 127.94 458.086 147.045 479.008 147.045Z" fill="#A0616A"/>
<path d="M394.56 191.494L389.036 187.938C389.036 187.938 364.569 206.607 356.677 248.39C348.784 290.172 343.26 300.84 343.26 300.84C343.26 300.84 335.367 302.618 340.892 308.841C346.417 315.064 346.417 314.175 341.681 317.731C336.946 321.287 333.789 314.175 336.946 321.287C340.103 328.399 344.049 326.621 340.892 331.066C337.735 335.511 332.21 335.511 335.367 339.067C338.524 342.622 332.211 350.623 336.157 354.179C340.103 357.735 341.681 358.624 341.681 364.847C341.657 368.479 342.191 372.088 343.26 375.515H384.3C384.3 375.515 376.408 358.624 378.775 355.068C381.143 351.512 381.932 347.956 380.354 346.178C378.775 344.4 374.04 347.956 378.775 343.511C383.511 339.066 385.089 341.733 383.511 336.4C381.932 331.066 378.775 333.733 381.932 331.066C385.089 328.399 387.457 329.288 385.879 326.621C384.3 323.954 381.143 323.954 384.3 322.176C387.457 320.398 389.825 322.176 389.036 317.731C388.246 313.286 387.457 315.064 389.036 313.286C390.614 311.508 407.188 251.057 407.188 249.279C407.188 247.501 394.56 191.494 394.56 191.494Z" fill="#5C81E2"/>
<path d="M386.668 371.959L336.946 375.515L349.574 388.85L384.3 389.739L386.668 371.959Z" fill="#3F3D56"/>
<path d="M400.874 438.633L390.614 459.969C390.614 459.969 421.394 464.414 432.443 468.859C443.493 473.304 471.905 479.527 471.905 479.527L479.008 448.412L400.874 438.633Z" fill="#3F3D56"/>
<path d="M490.847 448.412L499.529 477.749L534.255 469.748L530.309 442.189L490.847 448.412Z" fill="#3F3D56"/>
<path d="M505.053 161.269C505.053 161.269 502.686 159.491 497.161 163.047C491.636 166.603 473.484 168.381 464.802 157.713C456.121 147.045 449.807 138.155 447.439 139.933C445.071 141.711 443.493 162.158 443.493 162.158L435.6 169.27L389.036 187.938L392.982 307.952L400.085 335.51C400.085 335.51 394.56 356.846 401.663 369.292C408.766 381.738 397.717 386.183 397.717 386.183C397.717 386.183 395.349 389.739 396.928 398.629C398.506 407.518 395.349 440.411 395.349 440.411C395.349 440.411 462.435 474.193 532.676 444.856L524.784 411.074L520.838 335.51C520.838 335.51 524.784 323.065 523.995 317.731C523.206 312.397 547.672 237.722 547.672 237.722C547.672 237.722 543.726 200.384 523.206 192.383C502.686 184.382 499.529 176.381 499.529 176.381C499.529 176.381 508.999 164.825 505.053 161.269Z" fill="#5C81E2"/>
<path d="M440.862 109.84C440.862 109.84 436.928 103.193 438.441 96.0348C439.345 91.9708 439.702 87.7768 439.501 83.5933C439.501 83.5933 442.678 72.004 445.855 65.5276C449.033 59.0513 447.52 56.3244 457.506 54.2792C467.492 52.234 463.407 37.577 489.734 53.427C490.623 54.824 491.858 55.8932 493.286 56.4999C494.713 57.1065 496.268 57.2234 497.754 56.8357C503.201 55.6426 505.168 64.1642 505.168 64.1642C505.168 64.1642 508.799 61.7782 510.161 65.1868C511.523 68.5954 521.232 63.141 521.232 86.1492C521.232 109.157 510.183 129.71 510.183 129.71C510.183 129.71 510.993 91.0071 492.988 87.0872C474.982 83.1673 455.615 71.7484 450.924 86.4054C446.234 101.063 440.862 109.84 440.862 109.84Z" fill="#2F2E41"/>
<path d="M510.578 119.042C512.539 119.042 514.129 116.654 514.129 113.708C514.129 110.762 512.539 108.374 510.578 108.374C508.616 108.374 507.026 110.762 507.026 113.708C507.026 116.654 508.616 119.042 510.578 119.042Z" fill="#A0616A"/>
</g>
</svg>
