<svg width="303" height="326" viewBox="0 0 303 326" fill="none" xmlns="http://www.w3.org/2000/svg">
<path d="M261 24C263.761 24 266 21.7614 266 19C266 16.2386 263.761 14 261 14C258.239 14 256 16.2386 256 19C256 21.7614 258.239 24 261 24Z" fill="#C2C8E1"/>
<path d="M211 177C216.523 177 221 172.523 221 167C221 161.477 216.523 157 211 157C205.477 157 201 161.477 201 167C201 172.523 205.477 177 211 177Z" fill="#C2C8E1"/>
<path d="M106.972 93.7205C107.641 95.502 107.659 97.453 107.563 99.3535C107.444 101.671 106.862 104.391 104.71 105.275C103.309 105.838 101.578 105.412 100.333 106.264C98.8218 107.29 98.895 109.498 99.1286 111.302C99.7742 116.262 100.502 121.405 103.204 125.6C104.655 127.848 106.619 129.721 108.611 131.512C112.581 135.093 116.935 138.592 122.151 139.787C123 140.027 123.894 140.065 124.761 139.897C125.615 139.633 126.391 139.161 127.018 138.523C130.04 135.748 131.597 131.787 133.611 128.196C135.035 125.627 136.734 123.159 137.535 120.328C138.195 117.855 138.151 115.247 137.409 112.798C136.666 110.349 135.254 108.155 133.332 106.466C132.439 105.701 131.45 105.06 130.585 104.268C128.323 102.216 127.004 99.2711 126.464 96.2668C125.924 93.2625 126.006 90.1713 126.267 87.1075C121.688 86.7548 117.141 87.309 112.673 88.202C110.685 88.6004 107.888 88.7836 106.088 89.7316C104.064 90.8078 106.418 92.1863 106.972 93.7205Z" fill="#FBBEBE"/>
<path opacity="0.1" d="M106.972 93.7205C107.641 95.502 107.659 97.453 107.563 99.3535C107.444 101.671 106.862 104.391 104.71 105.275C103.309 105.838 101.578 105.412 100.333 106.264C98.8218 107.29 98.895 109.498 99.1286 111.302C99.7742 116.262 100.502 121.405 103.204 125.6C104.655 127.848 106.619 129.721 108.611 131.512C112.581 135.093 116.935 138.592 122.151 139.787C123 140.027 123.894 140.065 124.761 139.897C125.615 139.633 126.391 139.161 127.018 138.523C130.04 135.748 131.597 131.787 133.611 128.196C135.035 125.627 136.734 123.159 137.535 120.328C138.195 117.855 138.151 115.247 137.409 112.798C136.666 110.349 135.254 108.155 133.332 106.466C132.439 105.701 131.45 105.06 130.585 104.268C128.323 102.216 127.004 99.2711 126.464 96.2668C125.924 93.2625 126.006 90.1713 126.267 87.1075C121.688 86.7548 117.141 87.309 112.673 88.202C110.685 88.6004 107.888 88.7836 106.088 89.7316C104.064 90.8078 106.418 92.1863 106.972 93.7205Z" fill="black"/>
<path d="M80.4764 107.696C72.9941 105.12 69.4188 95.0543 61.5864 93.9257C60.3516 93.7453 59.0846 93.8147 57.8729 93.5279C53.3623 92.4547 51.4227 87.2184 50.1188 82.7546C45.7234 67.8736 39.9827 53.3119 31.8277 40.1193C28.3861 34.5684 22.9448 30.0075 20.4615 23.9293C19.8902 22.5416 19.5999 20.9596 18.5725 19.8633C17.545 18.767 15.3474 18.6097 14.7899 20.0067C14.6344 20.5015 14.5996 21.0266 14.6885 21.5378L15.2276 27.2968L5.85629 26.4503C4.9894 26.3019 4.09965 26.3653 3.26237 26.6353C2.3582 27.0896 1.63744 27.8426 1.22133 28.7678C-1.9485 34.7488 1.42864 42.5848 7.02193 46.3687C13.5551 50.7862 22.8849 51.4569 27.225 58.0486C29.8051 61.9712 29.8558 67.0179 31.5559 71.3984C32.3668 73.4939 33.5509 75.4182 34.4954 77.4489C36.2968 81.3206 37.2183 85.53 38.6143 89.5636C40.6139 95.3319 43.5764 100.707 46.5297 106.05C48.8057 110.176 51.137 114.376 54.6386 117.531C56.9422 119.603 59.6513 121.139 62.3604 122.619C69.0226 126.273 76.8781 129.789 83.9365 126.986C84.3419 120.667 82.7616 113.622 80.4764 107.696Z" fill="#FBBEBE"/>
<path d="M102.929 307.517C102.353 313.612 98.6454 319.133 97.7792 325C92.0672 324.108 86.4443 322.959 81.0039 321.651C80.3344 321.492 79.6695 321.329 79 321.184C82.0807 312.776 79.398 303.36 80.2126 294.406C80.2922 293.546 80.4046 292.687 80.5544 291.837C87.6101 289.436 93.9822 286.232 101.38 287.166C101.525 288.661 101.675 290.16 101.82 291.655C102.116 294.641 102.41 297.624 102.7 300.604C102.997 302.896 103.074 305.211 102.929 307.517V307.517Z" fill="#FBBEBE"/>
<path d="M152 322.321C149.198 323.148 146.321 323.869 143.316 324.461C142.814 324.562 142.308 324.659 141.801 324.751C138.725 325.311 135.611 325.72 132.464 326C132.142 319.616 127.731 313.747 127.087 307.193C126.956 305.564 126.973 303.927 127.139 302.302C127.196 301.659 127.262 301.016 127.324 300.373L128.659 287.159C129.721 287.03 130.792 286.979 131.863 287.008C138.015 287.15 143.614 289.736 149.709 291.752C150.164 294.54 150.322 297.365 150.183 300.184C149.951 307.358 148.763 314.619 151.508 321.201C151.664 321.573 151.834 321.945 152 322.321Z" fill="#FBBEBE"/>
<path d="M73.7519 221.364C74.5603 227.612 71.3404 233.595 69.9452 239.737C69.0213 243.8 68.8966 247.982 68.7718 252.151L68.0419 277.12C67.968 279.616 67.9033 282.158 68.6702 284.554C70.2132 289.355 74.9669 292.598 79.9146 293.752C84.8623 294.906 90.0364 294.32 95.0765 293.66C97.5481 293.335 100.126 292.955 102.172 291.54C104.986 289.593 106.215 286.125 107.277 282.891L110.275 273.762C113.726 281.467 112.267 289.891 114.336 298.067C114.469 298.823 114.786 299.535 115.26 300.142C116.133 301.104 117.57 301.255 118.877 301.347C127.932 301.979 137.111 302.606 146.018 300.889C148.467 300.431 151.021 299.689 152.712 297.865C154.68 295.745 155.022 292.625 154.999 289.744C154.874 279.845 151.266 270.295 150.462 260.428C150.116 256.2 150.287 251.949 150.134 247.708C150.014 244.518 149.714 241.337 149.234 238.18C149.081 236.734 148.681 235.324 148.051 234.012C146.665 231.446 143.787 230.054 141.061 228.973C119.884 220.444 96.5918 220.526 73.7519 221.364Z" fill="#F49F9F"/>
<path d="M113 96C124.046 96 133 87.0457 133 76C133 64.9543 124.046 56 113 56C101.954 56 93 64.9543 93 76C93 87.0457 101.954 96 113 96Z" fill="#FBBEBE"/>
<path d="M130.306 110.92C128.828 114.188 126.503 117.457 123.042 118.288C119.86 119.059 116.487 117.513 114.143 115.211C111.799 112.909 110.266 109.92 108.64 107.058C107.454 104.966 106.134 102.855 104.128 101.538C101.386 99.7451 97.8467 99.7918 94.6132 100.32C91.3798 100.847 88.1695 101.79 84.8852 101.576C80.7947 101.3 76.6256 99.2408 72.7668 100.614C74.0175 106.255 73.5682 112.456 73.4246 118.237C73.4489 119.13 73.3236 120.02 73.054 120.871C72.7172 121.664 72.2626 122.401 71.7059 123.056L68 127.871C71.9746 130.868 75.4119 134.782 76.8016 139.587C77.5845 142.323 77.3436 145.228 77.3158 148.076C77.2278 156.44 79.0298 164.77 78.46 173.115C77.7929 182.888 73.9202 192.125 71.9237 201.712C70.2135 209.942 69.8909 218.403 70.9694 226.741C91.7319 233.984 113.124 237.692 135.073 238.906C138.95 239.121 143.138 239.153 146.32 236.907C148.965 235.039 150.448 231.841 150.953 228.618C151.458 225.396 151.11 222.118 150.758 218.878C149.804 210.114 148.851 201.351 147.9 192.587C147.358 187.6 146.816 182.585 147.168 177.584C147.432 173.848 148.192 170.182 148.947 166.526L153.579 144.084C154.242 140.894 154.909 137.681 156.22 134.707C157.294 132.279 158.781 130.037 159.967 127.674C161.381 124.841 162.356 121.807 162.858 118.676C163.059 117.767 163.046 116.824 162.821 115.921C162.325 114.389 160.81 113.469 159.398 112.717C150.782 108.153 141.548 104.889 131.992 103.028C131.344 105.778 131.469 108.356 130.306 110.92Z" fill="#E3E8F4"/>
<path d="M128.35 97.9583C130.709 93.5173 135.12 90.4021 137.682 86.063C139.097 83.6031 139.889 80.8441 139.989 78.0197C140.089 75.1953 139.495 72.3888 138.257 69.838C137.356 68.0301 136.134 66.3705 135.426 64.4791C134.639 62.3281 134.563 59.9593 133.652 57.8546C132.402 54.9712 129.694 52.8944 126.746 51.6984C123.797 50.5024 120.612 50.0713 117.437 49.6541L106.718 48.2355C105.166 48.0316 103.557 47.8276 102.048 48.2355C100.538 48.6435 99.132 49.8534 99.0093 51.3925C98.8631 53.2143 100.491 54.911 100.113 56.7004C99.9765 57.3308 99.599 57.9705 99.8161 58.5825C100.009 58.9912 100.344 59.3196 100.76 59.5096C103.303 60.9003 106.341 61.0255 109.096 61.9341C111.851 62.8427 114.616 65.1235 114.338 67.9605C114.187 69.4857 113.186 71.0711 113.866 72.4386C114.517 73.7042 116.225 73.936 117.588 74.33C121.999 75.5863 125.094 80.2869 124.453 84.7604C124.255 86.1511 123.745 87.4816 123.641 88.8769C123.297 93.763 124.08 95.1583 128.142 98L128.35 97.9583Z" fill="#3F3D56"/>
<path d="M155.277 119.503C155.298 120.422 155.131 121.336 154.787 122.188C153.356 125.25 148.978 125.057 146.076 126.793C142.464 128.958 141.666 133.789 141.336 137.998C140.96 142.764 140.704 147.6 141.676 152.274C142.647 156.949 144.985 161.508 148.891 164.248C153.645 167.569 160.109 167.684 165.537 165.662C170.965 163.64 175.498 159.731 179.432 155.457C183.163 151.404 186.505 146.886 188.509 141.742C188.862 140.821 189.173 139.845 188.889 138.924C188.463 137.542 186.964 136.916 185.744 136.16C182.898 134.433 181 131.422 180.014 128.239C179.028 125.057 178.863 121.672 178.831 118.333C178.795 114.865 178.785 111.075 176.585 108.399C174.384 105.724 170.57 104.973 167.095 105.001C164.253 105.001 156.387 105.272 154.447 107.764C152.857 109.836 155.392 116.537 155.277 119.503Z" fill="#BE6F72"/>
<path opacity="0.1" d="M155.277 119.503C155.298 120.422 155.131 121.336 154.787 122.188C153.356 125.25 148.978 125.057 146.076 126.793C142.464 128.958 141.666 133.789 141.336 137.998C140.96 142.764 140.704 147.6 141.676 152.274C142.647 156.949 144.985 161.508 148.891 164.248C153.645 167.569 160.109 167.684 165.537 165.662C170.965 163.64 175.498 159.731 179.432 155.457C183.163 151.404 186.505 146.886 188.509 141.742C188.862 140.821 189.173 139.845 188.889 138.924C188.463 137.542 186.964 136.916 185.744 136.16C182.898 134.433 181 131.422 180.014 128.239C179.028 125.057 178.863 121.672 178.831 118.333C178.795 114.865 178.785 111.075 176.585 108.399C174.384 105.724 170.57 104.973 167.095 105.001C164.253 105.001 156.387 105.272 154.447 107.764C152.857 109.836 155.392 116.537 155.277 119.503Z" fill="black"/>
<path d="M130.613 243.594C130.759 244.297 131.096 244.948 131.59 245.477C132.054 245.837 132.595 246.088 133.172 246.211C148.583 250.657 165.045 248.884 181 247.07C178.817 240.533 176.619 233.923 176.013 227.067C175.511 221.412 176.074 215.527 174.037 210.223C173.436 208.653 138.408 215.878 134.952 216.464C133.182 216.764 131.144 216.662 129.89 218.043C128.378 219.714 128.252 223.693 128.092 225.775C127.641 231.79 128.904 237.846 130.613 243.594Z" fill="#BE6F72"/>
<path d="M164.925 316.634C162.173 317.922 159.334 319.123 156.393 320.199C154.803 320.783 153.18 321.33 151.522 321.84C148.807 322.674 146.018 323.402 143.106 324C141.445 319.744 139.784 315.487 138.12 311.228C136.895 308.095 135.671 304.947 134.648 301.743C133.937 299.556 133.351 297.329 132.896 295.072C131.394 287.404 131.785 279.48 134.033 272C140.391 273.21 146.605 273.998 152.866 274.916C156.21 275.38 159.563 275.927 162.957 276.571C163.223 278.805 163.465 281.04 163.682 283.274C164.012 286.723 164.283 290.172 164.494 293.621C164.961 301.286 165.105 308.957 164.925 316.634Z" fill="#BE6F72"/>
<path opacity="0.1" d="M164.925 316.634C162.173 317.922 159.334 319.123 156.393 320.199C154.803 320.783 153.18 321.33 151.522 321.84C148.807 322.674 146.018 323.402 143.106 324C141.445 319.744 139.784 315.487 138.12 311.228C136.895 308.095 135.671 304.947 134.648 301.743C133.937 299.556 133.351 297.329 132.896 295.072C131.394 287.404 131.785 279.48 134.033 272C140.391 273.21 146.605 273.998 152.866 274.916C156.21 275.38 159.563 275.927 162.957 276.571C163.223 278.805 163.465 281.04 163.682 283.274C164.012 286.723 164.283 290.172 164.494 293.621C164.961 301.286 165.105 308.957 164.925 316.634Z" fill="black"/>
<path d="M200.999 296.961C201.036 299.675 200.272 302.445 199.563 305.108C199.512 305.296 199.466 305.48 199.419 305.668C197.734 305.138 196.28 304.036 195.304 302.549C194.8 301.743 194.427 300.86 194.2 299.934C192.09 301.385 189.962 302.822 187.815 304.245C180.793 308.91 173.369 313.541 165.163 317.377C162.367 318.687 159.483 319.907 156.495 321C155.874 318.801 155.284 316.588 154.725 314.361C154.114 312.068 153.634 309.742 153.289 307.393C152.607 302.058 153.136 296.635 154.836 291.538L155.046 290.925C155.838 288.658 156.861 286.481 158.099 284.428C159.259 282.543 161.556 282.859 163.9 283.486C164.963 283.764 166.039 284.098 167.018 284.306C173.108 285.597 179.432 284.263 185.658 284.617C188.625 284.766 191.532 285.514 194.209 286.817C197.205 288.339 199.619 290.666 200.565 293.884C200.7 294.348 200.802 294.82 200.873 295.298C200.951 295.849 200.993 296.404 200.999 296.961Z" fill="#BE6F72"/>
<path d="M89.0383 83.4946C79.5302 74.237 68.7238 66.3912 57.6687 59.0546C54.792 57.2409 52.0246 55.2579 49.3808 53.1158C46.6182 50.8014 44.2101 48.0843 41.2771 46.0014C38.3441 43.9184 34.7159 42.4881 31.1935 43.1732C27.6712 43.8583 24.5402 47.2465 25.0559 50.7922C25.5163 53.912 28.3066 56.0505 30.885 57.8418C35.7657 61.2347 40.6693 64.6369 45.9782 67.2985C47.8224 68.1389 49.611 69.0975 51.3331 70.1683C54.639 72.4087 57.0471 75.7229 59.5472 78.8381C68.984 90.6217 80.5426 100.514 93.6196 107.999C93.7762 108.092 99.2231 96.2747 98.9929 94.7426C98.4864 91.2201 91.543 85.9386 89.0383 83.4946Z" fill="#BE6F72"/>
<path d="M171.724 233.029C164.295 233.495 157.17 236.004 149.904 237.603C142.638 239.202 134.744 239.822 128 236.67L132.101 264.684C132.33 266.241 132.567 267.835 132.227 269.369C131.915 270.833 131.104 272.213 131.174 273.709C131.281 276.077 133.504 277.742 135.597 278.837C141.676 282.048 148.486 283.618 155.357 283.392C154.849 285.443 154.215 287.471 153.702 289.522C157.128 293.201 162.73 293.448 167.618 294.613C171.347 295.494 174.842 297.023 178.496 298.1C182.914 299.405 187.502 300.044 192.109 299.998C195.218 299.965 198.512 299.531 200.927 297.592C203.895 295.201 204.818 291.135 205.461 287.378C205.82 285.28 206.151 283.154 205.927 281.038C205.685 278.604 204.743 276.301 203.811 274.045L197.427 258.544C196.266 255.747 195.096 252.908 193.698 250.208C189.131 241.477 181.553 232.419 171.724 233.029Z" fill="#3F3D56"/>
<path d="M176.678 137.427C177.23 135.991 178.248 134.778 179.572 133.978C180.896 133.178 182.45 132.838 183.991 133.01C185.854 133.268 187.517 134.279 189.115 135.267L198.011 140.769C199.485 141.638 200.9 142.603 202.245 143.658C208.379 148.699 210.746 156.984 211.421 164.854C212.096 172.723 211.421 180.727 213 188.468C209.246 191.551 205.082 194.159 201.328 197.238C199.362 198.848 197.373 200.469 195.883 202.541C194.699 204.17 193.856 206.035 192.622 207.618C190.601 210.121 187.669 211.735 184.457 212.114C186.492 213.286 187.634 215.562 188.183 217.828C188.733 220.095 188.882 222.444 189.492 224.71C190.33 227.789 192.068 230.6 192.641 233.739C193.041 235.903 192.864 238.124 193.009 240.321C193.735 251.689 202.739 261.627 202.157 273C197.907 271.469 193.886 269.375 190.205 266.773C188.547 265.596 186.944 264.322 185.375 263.053L173.511 253.522C167.74 248.906 161.913 244.189 157.325 238.391C154.447 234.754 152.099 230.729 149.211 227.101C146.324 223.473 142.77 220.178 138.359 218.655C137.711 219.619 136.561 220.288 135.913 221.253C135.799 221.405 135.708 221.573 135.643 221.752C135.564 222.182 135.618 222.626 135.797 223.026C136.317 224.892 136.63 226.81 136.728 228.744L137.022 232.216C137.131 233.135 137.131 234.065 137.022 234.985C136.579 237.953 133.803 240.256 130.808 240.718C130.375 240.81 129.926 240.796 129.5 240.676C128.666 240.399 128.205 239.527 127.953 238.696C126.775 234.754 128.582 230.595 128.726 226.492C128.747 225.451 128.711 224.409 128.619 223.372L128.34 219.278C125.634 218.719 124.078 215.839 123.361 213.194C121.423 206.054 119.471 198.664 120.594 191.353C120.892 189.395 121.414 187.411 121.06 185.454C120.594 182.837 118.693 180.713 117.692 178.249C114.431 170.213 121.358 161.489 120.715 152.862C120.445 149.239 118.125 146.091 116.728 142.731C116.005 140.772 115.067 138.898 113.933 137.141C112.508 135.124 110.584 133.508 108.716 131.884C102.948 126.868 97.4768 121.526 92.3302 115.886C89.6871 115.614 87.2075 114.488 85.2736 112.682C84.044 111.528 83.0332 110.005 83.0006 108.33C82.968 106.654 84.2163 104.895 85.9071 104.808C86.8945 104.757 87.8168 105.242 88.781 105.454C91.7992 106.109 94.8361 103.908 96.1822 101.143C97.5283 98.3781 97.5283 95.1979 97.505 92.133C98.98 91.8735 100.498 91.995 101.912 92.4858C103.325 92.9765 104.588 93.8199 105.577 94.9348C107.659 97.178 109.014 99.9751 110.654 102.551C111.321 103.695 112.178 104.72 113.188 105.583C115.428 107.346 118.656 107.679 120.612 109.737C121.605 110.79 122.154 112.184 123.062 113.31C125.615 116.481 130.287 116.869 133.775 118.955C137.264 121.041 139.691 124.854 143.557 126.091C144.954 126.552 146.477 126.612 147.861 127.125C151.056 128.302 153.007 131.667 153.45 135.013C153.892 138.359 153.138 141.743 152.374 145.038L150.581 152.751C150.185 154.459 149.882 156.513 151.154 157.732C151.754 158.224 152.46 158.576 153.217 158.761C156.478 159.813 160.111 160.847 163.175 159.356C164.624 158.646 165.761 157.445 166.799 156.218C171.345 150.91 174.368 143.958 176.678 137.427Z" fill="#8165C9"/>
<path d="M212.797 294.655C212.158 298.891 209.826 303.058 206.01 304.998C203.721 306.127 201.08 306.31 198.658 305.507C196.985 304.985 195.542 303.903 194.573 302.442C194.072 301.65 193.702 300.782 193.477 299.872C193.477 299.826 193.453 299.775 193.444 299.729C193.097 298.091 192.952 296.416 193.014 294.742C193.013 292.144 193.167 289.549 193.477 286.969C193.735 284.797 194.162 282.648 194.753 280.543C195.614 277.538 196.854 274.644 197.992 271.746C198.584 270.218 199.153 268.686 199.62 267.116C199.903 266.19 200.143 265.237 200.338 264.273L200.407 263.926C200.444 263.732 200.476 263.537 200.509 263.343C200.971 260.704 201.106 257.972 202.295 255.588C205.07 249.99 210.474 251.421 211.298 256.583C211.36 256.983 211.395 257.387 211.404 257.792C211.529 264.324 208.938 270.709 210.122 277.265C210.457 278.864 210.877 280.443 211.381 281.997C211.797 283.427 212.172 284.876 212.459 286.344C213.04 289.075 213.154 291.885 212.797 294.655Z" fill="#BE6F72"/>
<path d="M215.799 222.294C215.926 224.994 215.799 227.726 216.347 230.374C217.63 236.632 222.498 242.17 221.958 248.531C221.826 250.081 221.244 251.749 219.872 252.515C218.5 253.28 216.229 253.22 215.78 254.761C215.652 255.19 215.718 255.657 215.576 256.082C215.278 256.988 214.157 257.376 213.211 257.353C212.264 257.329 211.318 257.021 210.339 257.101C206.909 257.385 205.65 261.915 202.594 263.471C200.536 264.517 197.863 263.938 196.164 262.392C194.466 260.846 193.723 258.436 193.856 256.153C193.955 254.429 194.509 252.767 194.802 251.067C195.337 248.036 195.057 244.93 194.778 241.867C194.367 237.379 193.941 232.835 192.446 228.58C191.741 226.572 190.804 224.653 190.194 222.617C189.323 219.735 189.125 216.704 189.035 213.701C188.85 207.383 189.29 200.625 193.113 195.544C195.985 191.733 200.101 188.637 203.351 185.111C205.385 182.902 205.972 182.211 208.219 184.084C210.069 185.62 212.004 187.74 212.212 189.823C212.78 195.161 212.212 200.41 213.225 205.846C214.237 211.282 215.534 216.714 215.799 222.294Z" fill="#8165C9"/>
<path d="M167.5 120C180.479 120 191 109.479 191 96.5C191 83.5213 180.479 73 167.5 73C154.521 73 144 83.5213 144 96.5C144 109.479 154.521 120 167.5 120Z" fill="#BE6F72"/>
<path d="M189.534 141.899C190.062 141.172 190.689 140.389 191.586 140.236C192.262 140.186 192.94 140.325 193.538 140.639L199.873 143.238C201.585 140.461 202.595 137.322 202.817 134.082C202.949 132.094 202.789 130.079 203.175 128.123C203.751 125.223 205.501 122.623 205.907 119.695C206.227 117.332 205.647 114.955 205.298 112.596C204.223 105.312 205.378 97.8799 204.76 90.5449C204.142 83.2099 201.147 75.3513 194.487 71.9827C192.6 71.056 190.567 70.4999 188.604 69.7678C184.232 68.1321 180.312 65.5142 175.991 63.7441C171.67 61.9741 166.595 61.1632 162.406 63.1974C158.217 65.2315 155.778 70.954 158.5 74.6887C159.396 75.9166 160.708 76.7877 161.963 77.6728C164.514 79.466 167.118 81.6808 167.708 84.7112C168.765 90.165 162.991 94.4418 161.363 99.7751C160.763 101.858 160.709 104.056 161.208 106.165C161.911 109.325 163.628 112.309 163.566 115.543C163.519 119.088 161.359 122.299 160.953 125.825C160.807 127.118 160.896 128.429 160.731 129.717C160.441 131.417 159.929 133.072 159.208 134.643C155.434 143.91 151.609 153.275 146 161.606C152.005 161.706 157.941 160.343 163.279 157.64C162.512 161.211 161.042 164.602 158.953 167.62C163.752 167.075 168.369 165.492 172.472 162.987C171.477 166.489 170.034 169.853 168.18 173C168.34 172.731 171.307 172.073 171.854 171.767C172.979 171.139 173.883 170.191 174.449 169.048C176.052 166.23 177.052 162.834 178.538 159.905C181.715 153.628 185.392 147.608 189.534 141.899V141.899Z" fill="#3F3D56"/>
<path d="M10.2197 0.00189277C9.11391 0.11327 8.00121 0.139211 6.89146 0.0794866C6.70228 0.058821 6.51253 0.113254 6.3631 0.231063C6.21367 0.348872 6.11651 0.520634 6.0925 0.709372L3.96955 16.63C3.80623 17.7857 3.33293 18.8756 2.59991 19.784C1.99559 20.5069 1.54636 21.3463 1.28012 22.25C1.01388 23.1538 0.936299 24.1026 1.05221 25.0376V52.0816C1.05221 52.0816 0.915251 55.6875 3.68649 55.6875C7.0032 56.1042 10.359 56.1042 13.6757 55.6875C13.6757 55.6875 15.8945 55.2676 15.8945 51.9401V25.3115C16.0638 24.3824 16.029 23.4277 15.7925 22.5134C15.556 21.5992 15.1235 20.7473 14.5249 20.0168C13.8164 19.1051 13.3585 18.0241 13.1964 16.881L10.9912 0.627213C10.9662 0.444473 10.8725 0.278125 10.7292 0.161973C10.5858 0.0458217 10.4037 -0.0114153 10.2197 0.00189277Z" fill="#3F3D56"/>
<path d="M10.1255 26H6.87444C4.18236 26 2 28.2835 2 31.1003V43.8997C2 46.7165 4.18236 49 6.87444 49H10.1255C12.8176 49 15 46.7165 15 43.8997V31.1003C15 28.2835 12.8176 26 10.1255 26Z" fill="#8165C9"/>
<path d="M42.2197 23.0019C41.1139 23.1153 40.0012 23.1417 38.8915 23.0809C38.7023 23.0599 38.5125 23.1153 38.3631 23.2352C38.2137 23.3551 38.1165 23.5299 38.0925 23.722L35.9695 39.9269C35.8062 41.1033 35.3329 42.2126 34.5999 43.1373C33.9956 43.8731 33.5464 44.7275 33.2801 45.6474C33.0139 46.5672 32.9363 47.533 33.0522 48.4847V76.0117C33.0522 76.0117 32.9153 79.6819 35.6865 79.6819C39.0032 80.106 42.359 80.106 45.6757 79.6819C45.6757 79.6819 47.8945 79.2545 47.8945 75.8676V48.7635C48.0638 47.8178 48.029 46.846 47.7925 45.9155C47.556 44.9849 47.1235 44.1178 46.5249 43.3742C45.8164 42.4462 45.3585 41.346 45.1964 40.1825L42.9912 23.6384C42.9662 23.4524 42.8725 23.2831 42.7292 23.1649C42.5858 23.0466 42.4037 22.9884 42.2197 23.0019Z" fill="#3F3D56"/>
<path d="M42.3756 50H38.6244C35.5181 50 33 52.2835 33 55.1003V67.8997C33 70.7165 35.5181 73 38.6244 73H42.3756C45.4819 73 48 70.7165 48 67.8997V55.1003C48 52.2835 45.4819 50 42.3756 50Z" fill="#8165C9"/>
<path d="M286 216C295.389 216 303 208.613 303 199.5C303 190.387 295.389 183 286 183C276.611 183 269 190.387 269 199.5C269 208.613 276.611 216 286 216Z" fill="#C2C8E1"/>
</svg>
