<svg width="299" height="372" viewBox="0 0 299 372" fill="none" xmlns="http://www.w3.org/2000/svg">
<path d="M150 24C156.627 24 162 18.6274 162 12C162 5.37258 156.627 0 150 0C143.373 0 138 5.37258 138 12C138 18.6274 143.373 24 150 24Z" fill="#C2C8E1"/>
<path d="M9.5 21C14.7467 21 19 16.7467 19 11.5C19 6.25329 14.7467 2 9.5 2C4.25329 2 0 6.25329 0 11.5C0 16.7467 4.25329 21 9.5 21Z" fill="#C2C8E1"/>
<path d="M78 226C89.0457 226 98 216.822 98 205.5C98 194.178 89.0457 185 78 185C66.9543 185 58 194.178 58 205.5C58 216.822 66.9543 226 78 226Z" fill="#C2C8E1"/>
<path d="M196.33 115.25C196.428 116.952 196.331 118.66 196.042 120.339C194.955 125.535 190.354 129.103 185.901 131.81C181.447 134.516 176.554 137.078 173.906 141.647C170.714 147.167 171.73 154.588 175.477 159.745C179.224 164.901 185.161 167.971 191.273 169.252C202.42 171.618 214.628 168.296 222.985 160.354C231.343 152.413 235.535 140.003 233.485 128.476C228.951 129.131 224.91 125.015 223.442 120.552C221.974 116.089 222.279 111.251 221.708 106.57C221.666 105.779 221.434 105.01 221.033 104.333C220.397 103.427 219.272 103.058 218.222 102.762C212.98 101.279 204.16 98.0358 198.728 99.2773C193.834 100.429 196.249 111.022 196.33 115.25Z" fill="#BE6F72"/>
<path opacity="0.1" d="M196.33 115.25C196.428 116.952 196.331 118.66 196.042 120.339C194.955 125.535 190.354 129.103 185.901 131.81C181.447 134.516 176.554 137.078 173.906 141.647C170.714 147.167 171.73 154.588 175.477 159.745C179.224 164.901 185.161 167.971 191.273 169.252C202.42 171.618 214.628 168.296 222.985 160.354C231.343 152.413 235.535 140.003 233.485 128.476C228.951 129.131 224.91 125.015 223.442 120.552C221.974 116.089 222.279 111.251 221.708 106.57C221.666 105.779 221.434 105.01 221.033 104.333C220.397 103.427 219.272 103.058 218.222 102.762C212.98 101.279 204.16 98.0358 198.728 99.2773C193.834 100.429 196.249 111.022 196.33 115.25Z" fill="black"/>
<path d="M188.626 359.627C183.447 362.388 178.058 364.718 172.51 366.593C169.471 367.571 166.382 368.374 163.255 369C163.033 364.756 163.261 360.499 163.932 356.304C164.355 353.892 164.978 351.502 165.14 349.056C165.371 345.527 164.629 342.002 163 338.878C169.037 338.039 174.77 336.67 180.833 337.073L181.218 337.1C181.939 337.119 182.653 337.255 183.332 337.503C184.264 337.963 185.057 338.673 185.624 339.557C185.936 339.99 186.224 340.442 186.485 340.909C188.198 343.923 188.848 347.4 188.983 350.983C189.047 353.869 188.928 356.757 188.626 359.627V359.627Z" fill="#BE6F72"/>
<path d="M221 346.386C219.136 346.842 217.306 347.362 215.512 347.945C210.674 349.578 205.966 351.602 201.43 354C201.135 352.51 200.991 350.992 201 349.471C203.673 347.546 206.69 346.202 209.87 345.518C213.05 344.835 216.329 344.827 219.513 345.495C219.938 345.548 220.343 345.718 220.686 345.987C220.81 346.102 220.916 346.236 221 346.386V346.386Z" fill="#BE6F72"/>
<path d="M231.162 317.977C230.785 321.593 230.231 325.22 228.944 328.621C227.552 332.27 225.289 335.809 225.577 339.707C225.705 341.398 226.282 343.234 226.365 344.909C224.768 345.201 223.191 345.529 221.634 345.894C219.66 346.354 217.722 346.88 215.822 347.469C210.698 349.12 205.712 351.166 200.908 353.59C199.959 354.055 199.022 354.524 198.085 355C197.697 354.95 197.314 354.889 196.926 354.818C194.153 354.314 191.235 353.076 189.666 350.864C189.306 350.355 189.024 349.796 188.828 349.206C187.924 346.513 188.867 343.157 186.987 341.022L186.898 341.1L186.832 341.144C185.802 342.074 184.671 342.886 183.459 343.566V343.566C180.703 345.121 177.649 346.081 174.496 346.384C171.343 346.687 168.161 346.326 165.157 345.324C163.967 344.92 162.817 344.406 161.724 343.787C159.184 342.344 156.732 339.917 156.932 337.019C157.043 335.405 157.969 333.857 157.72 332.259C157.536 331.114 156.782 330.163 156.216 329.151C152.506 322.517 156.932 313.985 154.603 306.775C154.547 306.604 154.486 306.432 154.425 306.267C154.253 305.797 154.059 305.343 153.87 304.89C153.393 303.834 152.861 302.794 152.44 301.711C152.088 300.799 151.81 299.862 151.608 298.907C151.084 296.135 150.898 293.309 151.053 290.492C151.053 283.066 152.384 275.464 154.281 268.309C154.619 267.038 154.996 265.241 155.495 263.283C155.982 261.22 156.639 259.201 157.459 257.246C158.568 254.702 160.077 252.673 162.14 252.192C165.246 251.468 169.993 252.999 173.144 253.375L185.595 254.857L210.492 257.826C214.79 258.34 219.305 258.932 222.849 261.343C223.082 261.503 223.309 261.669 223.536 261.846C224.473 262.581 225.311 263.432 226.032 264.378C226.287 264.704 226.531 265.047 226.764 265.395C227.572 266.628 228.259 267.935 228.816 269.299C231.906 276.697 231.978 284.952 232 292.964C232 301.324 232.028 309.678 231.162 317.977Z" fill="#3F3D56"/>
<path opacity="0.1" d="M183.299 344C182.514 341.113 180.856 336.932 180.612 335.794C179.792 331.976 179.198 328.117 178.832 324.235C178.186 317.317 177.022 307.579 179.582 301C181.985 302.221 184.096 305.68 185.207 308.04C189.233 316.596 184.701 327.1 188.482 335.755C188.765 336.274 188.941 336.839 189 337.421C188.934 338.159 188.657 338.866 188.197 339.464L186.923 341.485L183.299 344Z" fill="black"/>
<path d="M263.498 81.0187C267.421 74.4277 272.794 67.9465 272.459 60.2405C272.336 57.4943 271.462 54.8084 270.795 52.1171C268.886 44.3279 268.76 36.188 270.428 28.3401C277.019 27.2489 283.766 28.806 289.277 32.6901C291.02 33.9314 292.672 35.4748 293.44 37.5126C294.149 39.391 294.031 41.4836 293.904 43.4939C293.61 48.1131 293.211 53.0399 290.449 56.6759C289.591 57.8128 288.536 58.774 287.699 59.922C286.478 61.5697 285.764 63.58 285.065 65.5408L276.003 90.9436C271.43 103.747 266.472 117.137 256.397 125.997C256.152 126.211 248.935 115.649 248.338 114.589C245.923 110.244 246.978 108.41 249.899 104.774C255.662 97.5841 258.791 88.9114 263.498 81.0187Z" fill="#BE6F72"/>
<path d="M156 299C155.967 300.915 155.802 302.825 155.506 304.718C155.404 305.417 155.284 306.11 155.142 306.804C153.205 316.676 148.382 326.066 145.007 335.683C140.559 348.378 138.605 359.393 137.054 372C132.583 372 128.107 371.906 123.681 371.678H123.545C122.034 371.601 120.517 371.512 119 371.401C120.369 359.643 117.864 347.308 120.312 335.539C121.301 330.802 122.988 326.204 124.005 321.49C124.318 320.102 124.555 318.699 124.715 317.286C124.857 315.944 124.931 314.552 125.55 313.343C125.607 313.226 125.671 313.113 125.743 313.004C126.287 312.168 126.962 311.419 127.743 310.786C134.665 304.86 143.131 300.919 152.205 299.399C153.495 299.227 154.75 299.083 156 299Z" fill="#FBBEBE"/>
<path opacity="0.1" d="M156 299C155.967 300.915 155.802 302.825 155.506 304.718C155.404 305.417 155.284 306.11 155.142 306.804C153.205 316.676 148.382 326.066 145.007 335.683C140.559 348.378 138.605 359.393 137.054 372C132.583 372 128.107 371.906 123.681 371.678H123.545C122.034 371.601 120.517 371.512 119 371.401C120.369 359.643 117.864 347.308 120.312 335.539C121.301 330.802 122.988 326.204 124.005 321.49C124.318 320.102 124.555 318.699 124.715 317.286C124.857 315.944 124.931 314.552 125.55 313.343C125.607 313.226 125.671 313.113 125.743 313.004C126.287 312.168 126.962 311.419 127.743 310.786C134.665 304.86 143.131 300.919 152.205 299.399C153.495 299.227 154.75 299.083 156 299Z" fill="black"/>
<path d="M126.998 324.157C126.909 327.203 126.657 330.242 126.243 333.261C124.772 345.6 124.496 358.475 123.488 371C122.022 370.923 120.551 370.836 119.08 370.726C112.379 370.271 105.701 369.569 99.1221 368.61C99.629 365.789 100.14 362.968 100.654 360.147C101.282 356.688 101.91 353.197 101.728 349.689C101.558 346.373 100.665 343.144 99.9541 339.894C98.4388 332.932 97.5903 325.423 95.0942 318.857C93.7924 315.173 91.7146 311.81 89 308.99C99.3259 304.956 109.25 304.726 120.341 305.153C121.129 305.11 121.912 305.301 122.59 305.701C123.115 306.154 123.506 306.742 123.719 307.401C125.386 311.389 126.432 315.607 126.821 319.909C126.954 321.321 127.013 322.739 126.998 324.157V324.157Z" fill="#FBBEBE"/>
<path d="M210.5 112C222.374 112 232 102.374 232 90.5C232 78.6259 222.374 69 210.5 69C198.626 69 189 78.6259 189 90.5C189 102.374 198.626 112 210.5 112Z" fill="#BE6F72"/>
<path d="M215.083 141.177C217.824 136.459 220.226 130.568 225.501 129.257C228.478 128.511 231.576 129.528 234.477 130.53C235.317 130.73 236.08 131.177 236.67 131.813C237.099 132.499 237.329 133.292 237.334 134.103C238.252 143.854 238.221 153.673 237.241 163.419C236.544 170.316 235.371 177.181 235.162 184.111C234.872 193.719 236.44 203.327 235.925 212.924C235.535 220.197 233.956 227.344 232.388 234.452L225.808 264.21C225.69 265.131 225.324 266.001 224.75 266.727C224.195 267.24 223.531 267.618 222.809 267.833C213.284 271.229 203.16 272.573 193.089 271.778C183.018 270.982 173.225 268.065 164.341 263.214C161.966 261.898 159.598 260.377 158.051 258.131C155.858 254.945 155.655 250.73 156.368 246.914C157.081 243.097 158.622 239.496 159.658 235.752C161.259 229.944 161.637 223.881 161.999 217.863C162.482 209.942 162.964 201.972 162.125 194.079C161.55 188.641 160.349 183.287 159.444 177.894C158.111 169.766 157.338 161.554 157.13 153.319C156.993 148.401 157.218 142.942 160.59 139.396C162.235 137.67 164.428 136.631 166.66 135.79C170.405 134.396 174.589 133.577 178.372 134.85C182.156 136.122 185.204 140.126 184.311 144.048C183.899 145.868 182.731 147.461 182.446 149.308C182.068 151.753 183.351 154.215 185.188 155.868C195.069 164.873 210.153 149.718 215.083 141.177Z" fill="#E3E8F4"/>
<path d="M216.909 118.471C219.927 117.348 223.207 117.154 226.334 117.914C228.324 118.393 230.475 119.24 232.311 118.343C232.979 118.02 233.53 117.491 234.203 117.19C236.023 116.382 238.383 117.374 239.993 116.199C241.008 115.458 241.339 114.11 241.681 112.884C243.337 107.034 246.73 101.839 251.403 98C250.824 102.273 250.405 107.135 253.201 110.4C254.475 111.881 256.261 112.812 258.07 113.536C260.667 114.578 263.519 115.268 266.259 114.7C269 114.132 271.564 112.037 272 109.247C271.906 113.441 267.952 116.371 266.844 120.421C266.425 121.936 266.463 123.546 266.171 125.094C265.427 129.049 262.631 132.225 260.188 135.411C252.385 145.659 247.401 157.808 245.739 170.627C245.626 172.148 245.311 173.647 244.802 175.083C244.262 176.185 243.65 177.249 242.971 178.27C238.929 185.166 240.175 193.867 241.548 201.743C243.694 214.082 245.833 226.17 249.307 238.196C249.903 240.252 250.576 242.396 252.092 243.895C251.613 248.758 246.754 250.975 242.387 253.075C238.074 255.152 234.096 257.873 230.585 261.146C229.328 262.316 228.087 263.631 227.629 265.296C227.199 266.861 227.508 268.583 226.957 270.103C226.405 271.624 224.199 272.716 223.229 271.435C222.016 266.85 224.089 262.054 223.995 257.308C223.929 254.105 222.892 250.991 222.744 247.788C222.6 244.162 223.659 240.602 224.784 237.16C227.916 227.573 231.699 218.076 232.786 208.043C233.872 198.011 231.843 187.054 224.795 179.896C216.429 171.362 211.786 159.793 202.819 151.955C201.397 150.713 199.786 149.17 200.023 147.287C200.187 146.458 200.549 145.681 201.077 145.025C204.154 140.636 208.246 137.054 211.554 132.854C214.863 128.654 217.51 123.819 216.909 118.471Z" fill="#3F3D56"/>
<path d="M186.327 127.243C185.78 127.809 185.402 128.589 184.767 129.075C184.025 129.548 183.178 129.819 182.307 129.862C179.084 130.367 175.834 130.667 172.575 130.761C169.837 130.761 166.994 130.512 164.36 131.287C160.685 132.361 157.75 135.359 155.909 138.809C154.069 142.259 153.198 146.161 152.492 150.046C150.935 158.607 150.101 167.291 150 176C154.514 172.282 158.537 167.97 161.967 163.173C164.596 159.491 166.978 155.419 170.73 152.959C172.455 151.828 174.394 151.081 176.13 149.979C179.75 147.677 182.258 143.955 184.668 140.364C186.442 137.7 191.574 132.497 191.979 129.307C192.324 126.259 188.244 124.771 186.327 127.243Z" fill="#3F3D56"/>
<path d="M206.104 75.6072C206.785 76.0201 207.438 76.4794 208.057 76.982C211.801 79.6204 216.814 79.1306 221.341 78.5294C222.731 78.3513 224.16 78.1509 225.351 77.4162C227.264 76.2251 228.163 73.776 227.976 71.5105C227.788 69.2451 226.658 67.1578 225.279 65.3878C223.453 63.0454 221.174 61.1016 218.581 59.6742C215.989 58.2467 213.136 57.3652 210.196 57.0831C208.674 56.8817 207.126 57.0477 205.68 57.5673C203.898 58.3076 202.558 59.8328 200.915 60.8514C196.068 63.8571 188.601 62.5212 185.474 67.3192C183.185 70.8593 184.818 75.6684 183.737 79.7373C182.932 82.7764 180.61 85.5428 181.057 88.6431C181.305 90.313 182.341 91.7713 183.169 93.263C185.068 96.6924 185.947 100.602 185.7 104.523C187.823 106.037 190.785 103.683 191.375 101.134C191.965 98.5843 191.286 95.868 191.788 93.2964C192.676 88.7823 196.625 85.4704 198.406 81.3292C199.685 78.3625 201.77 73.3529 206.104 75.6072Z" fill="#3F3D56"/>
<path d="M153.834 125.304C153.667 126.297 153.562 127.393 154.122 128.233C155.231 129.869 157.77 129.28 159.766 129.525C162.876 129.901 165.171 132.797 165.775 135.84C166.38 138.883 165.659 141.981 164.872 144.969C163.09 151.743 160.969 158.419 158.507 165C151.888 164.231 144.919 161.728 141.404 156.171C138.211 151.115 138.538 144.675 136.509 139.069C135.084 135.12 132.528 131.685 130 128.314C134.064 128.816 136.969 124.246 137.207 120.221C137.446 116.197 136.159 112.112 137.035 108.18C137.24 107.248 153.257 110.187 154.815 111.25C159.317 114.321 154.543 121.039 153.834 125.304Z" fill="#FBBEBE"/>
<path opacity="0.1" d="M153.834 125.304C153.667 126.297 153.562 127.393 154.122 128.233C155.231 129.869 157.77 129.28 159.766 129.525C162.876 129.901 165.171 132.797 165.775 135.84C166.38 138.883 165.659 141.981 164.872 144.969C163.09 151.743 160.969 158.419 158.507 165C151.888 164.231 144.919 161.728 141.404 156.171C138.211 151.115 138.538 144.675 136.509 139.069C135.084 135.12 132.528 131.685 130 128.314C134.064 128.816 136.969 124.246 137.207 120.221C137.446 116.197 136.159 112.112 137.035 108.18C137.24 107.248 153.257 110.187 154.815 111.25C159.317 114.321 154.543 121.039 153.834 125.304Z" fill="black"/>
<path d="M150 118C162.15 118 172 108.374 172 96.5C172 84.6259 162.15 75 150 75C137.85 75 128 84.6259 128 96.5C128 108.374 137.85 118 150 118Z" fill="#FBBEBE"/>
<path d="M143.287 121.997C144.075 120.752 142.732 119.014 143.348 117.674C143.714 116.866 144.641 116.519 145.357 115.991C146.255 115.253 146.971 114.315 147.449 113.249C150.818 106.707 151.838 99.1862 150.334 91.9691C149.824 89.5466 149.369 86.3279 151.561 85.2401C152.168 84.9661 152.834 84.8504 153.497 84.9036C157.448 85.0326 161.266 87.7074 165.101 86.7597C166.409 86.4001 167.578 85.6452 168.451 84.596C169.324 83.5468 169.858 82.2534 169.984 80.8887C170.234 77.2662 167.548 74.1597 164.906 71.7204C160.151 67.3017 152.904 66.3204 146.444 66.2139L134.431 66.012C130.585 65.9447 126.273 66.0681 123.599 68.855C119.748 72.8644 121.684 79.4251 121.129 84.9821C120.658 89.4173 118.462 93.4816 115.025 96.2812C112.534 98.2887 109.104 100.206 109.149 103.414C109.149 104.535 109.626 105.556 109.931 106.616C111.158 110.81 109.987 115.448 107.634 119.12C105.281 122.793 101.841 125.62 98.2726 128.092C96.3637 129.41 94.3882 130.677 92.8789 132.466C91.2241 134.532 90.2415 137.065 90.0655 139.717C89.828 141.743 90.2404 143.793 91.2419 145.565C93.5892 149.356 99.2215 149.911 103.078 147.713C106.935 145.515 109.288 141.354 110.847 137.171C111.779 134.687 112.728 131.844 115.114 130.728C118.133 129.309 121.662 131.552 123.627 134.272C125.591 136.991 126.801 140.311 129.314 142.52C133.254 145.986 139.958 145.425 143.287 141.354C145.668 138.433 146.195 134.39 146.062 130.605C145.995 127.522 145.03 124.528 143.287 121.997Z" fill="#3F3D56"/>
<path d="M151.435 150.305C148.964 150.83 146.381 149.67 144.543 147.936C142.705 146.202 141.466 143.965 140.178 141.801C136.912 136.34 133.167 131.177 128.988 126.371C125.345 122.19 120.274 117.944 114.865 119.236C113.054 119.756 111.373 120.65 109.933 121.859C105.164 125.614 101.431 130.511 99.0834 136.092C96.7358 141.672 95.8506 147.754 96.5106 153.768C96.9326 157.285 97.8934 160.726 98.2932 164.26C98.5626 167.173 98.6405 170.101 98.5265 173.024C98.3765 181.927 98.0711 191.342 93.2451 198.842C85.7645 210.439 81.7604 224.289 76.2679 236.946C73.3023 243.789 71.5252 251.073 69.7814 258.318C68.7484 262.618 67.7173 266.917 66.6881 271.213L59.9683 299.322C59.2741 302.222 58.5799 305.259 59.313 308.158C60.4237 312.488 64.5166 315.514 68.8317 316.746C73.1468 317.977 77.7174 317.767 82.1991 317.806C90.7738 317.889 99.4151 318.949 107.462 321.909C109.761 322.754 112.055 323.765 114.504 323.963C116.953 324.162 119.391 323.527 121.685 322.644C127.944 320.236 133.308 316.017 139.073 312.609C142.674 310.452 146.466 308.627 150.402 307.159C152.379 306.424 154.501 305.728 155.861 304.121C156.889 302.912 157.35 301.332 157.688 299.786C159.565 291.083 158.305 282.065 157.688 273.185C157.072 264.305 151.735 254.922 156.15 247.18C157.039 245.617 158.099 244.115 158.555 242.381C159.154 240.116 158.649 237.681 159.154 235.395C159.527 233.705 160.421 232.186 161.032 230.568C162.098 227.718 162.242 224.615 162.231 221.572C162.206 214.891 161.499 208.23 160.121 201.691C158.371 193.408 164.158 185.218 167.474 177.393C168.662 174.593 170.345 171.947 170.839 168.949C171.283 166.243 170.711 163.487 170.284 160.776C169.646 156.573 169.385 152.322 169.506 148.074C169.612 144.264 170.017 140.381 169.101 136.676C168.185 132.97 165.569 129.375 161.809 128.613C161.387 128.49 160.944 128.462 160.51 128.529C160.076 128.597 159.662 128.76 159.299 129.005C158.865 129.428 158.559 129.964 158.416 130.551C157.194 134.273 157.433 138.283 156.75 142.148C156.067 146.014 155.267 149.488 151.435 150.305Z" fill="#F49F9F"/>
<path d="M98.8983 173.545C99.1256 171.999 98.4106 169.945 96.8588 170.001C95.4288 170.057 94.7915 171.86 94.797 173.305C94.8025 174.751 94.9965 176.408 93.9823 177.424C93.0844 178.322 91.5991 178.294 90.5571 179.026C90.1894 179.29 89.8901 179.639 89.6847 180.044C89.4792 180.449 89.3735 180.898 89.3766 181.353C89.3766 182.129 89.7257 182.871 89.7479 183.647C89.7701 184.422 89.2547 185.321 88.4898 185.271C88.097 185.935 87.9334 186.711 88.0247 187.478C88.1159 188.245 88.4568 188.961 88.9942 189.512C89.3932 189.903 89.9142 190.238 90.0472 190.785C90.0893 191.168 90.0592 191.557 89.9585 191.929C89.7257 193.464 90.7788 195.183 92.314 195.35C91.455 195.97 91.6268 197.421 92.4138 198.141C93.2008 198.86 94.3314 199 95.39 199C97.7926 198.987 100.168 198.491 102.379 197.543C103.136 197.292 103.805 196.827 104.308 196.204C104.541 195.883 104.653 195.488 104.623 195.091C104.594 194.695 104.425 194.321 104.147 194.038C105.222 194.217 106.514 194.318 107.217 193.48C108.198 192.308 107.145 190.573 106.109 189.44C106.539 189.375 106.94 189.185 107.264 188.893C107.587 188.601 107.818 188.219 107.928 187.796C108.038 187.372 108.022 186.926 107.882 186.512C107.741 186.097 107.483 185.734 107.14 185.466C106.785 185.204 106.303 184.975 106.253 184.534C106.203 184.093 106.574 183.809 106.73 183.418C107.084 182.542 106.275 181.649 105.494 181.118C103.643 179.879 100.916 179.902 99.2697 178.652C97.6236 177.402 98.66 175.219 98.8983 173.545Z" fill="#BE6F72"/>
<path d="M213.064 90.0023C211.737 90.1355 210.401 90.1665 209.07 90.0951C208.843 90.0704 208.615 90.1355 208.436 90.2764C208.256 90.4174 208.14 90.6229 208.111 90.8487L205.563 109.897C205.367 111.279 204.8 112.583 203.92 113.67C203.195 114.535 202.656 115.539 202.336 116.621C202.017 117.702 201.924 118.837 202.063 119.956V152.312C202.063 152.312 201.898 156.626 205.224 156.626C209.204 157.125 213.231 157.125 217.211 156.626C217.211 156.626 219.873 156.124 219.873 152.143V120.283C220.077 119.172 220.035 118.03 219.751 116.936C219.467 115.842 218.948 114.823 218.23 113.949C217.38 112.858 216.83 111.565 216.636 110.197L213.989 90.7504C213.959 90.5318 213.847 90.3328 213.675 90.1938C213.503 90.0548 213.284 89.9863 213.064 90.0023V90.0023Z" fill="#3F3D56"/>
<path opacity="0.1" d="M213.064 90.0023C211.737 90.1355 210.401 90.1665 209.07 90.0951C208.843 90.0704 208.615 90.1355 208.436 90.2764C208.256 90.4174 208.14 90.6229 208.111 90.8487L205.563 109.897C205.367 111.279 204.8 112.583 203.92 113.67C203.195 114.535 202.656 115.539 202.336 116.621C202.017 117.702 201.924 118.837 202.063 119.956V152.312C202.063 152.312 201.898 156.626 205.224 156.626C209.204 157.125 213.231 157.125 217.211 156.626C217.211 156.626 219.873 156.124 219.873 152.143V120.283C220.077 119.172 220.035 118.03 219.751 116.936C219.467 115.842 218.948 114.823 218.23 113.949C217.38 112.858 216.83 111.565 216.636 110.197L213.989 90.7504C213.959 90.5318 213.847 90.3328 213.675 90.1938C213.503 90.0548 213.284 89.9863 213.064 90.0023V90.0023Z" fill="black"/>
<path d="M212.626 121H208.374C204.854 121 202 123.681 202 126.987V142.013C202 145.319 204.854 148 208.374 148H212.626C216.146 148 219 145.319 219 142.013V126.987C219 123.681 216.146 121 212.626 121Z" fill="#8165C9"/>
<path d="M267.382 6.1016C266.182 6.75435 264.931 7.31179 263.642 7.76868C263.418 7.83465 263.229 7.984 263.115 8.18517C263.001 8.38634 262.97 8.62357 263.03 8.84673L268.162 27.7404C268.529 29.1117 268.514 30.5559 268.117 31.9192C267.771 33.0144 267.658 34.1685 267.783 35.3093C267.909 36.45 268.271 37.5528 268.847 38.5486L281.662 68.934C281.662 68.934 283.212 73.0462 286.363 71.7458C290.329 70.6571 294.14 69.0776 297.706 67.0447C297.706 67.0447 300.026 65.5332 298.453 61.7989L285.835 31.8803C285.586 30.757 285.095 29.7003 284.394 28.7831C283.693 27.866 282.799 27.1102 281.775 26.5678C280.54 25.8763 279.508 24.8785 278.782 23.6727L268.578 6.44613C268.462 6.24686 268.273 6.09967 268.05 6.03543C267.827 5.9712 267.587 5.99491 267.382 6.1016Z" fill="#3F3D56"/>
<path d="M279.734 35.078L275.975 36.6471C272.862 37.9464 271.392 41.5239 272.69 44.6377L278.592 58.7861C279.891 61.8999 283.467 63.3708 286.58 62.0714L290.339 60.5023C293.452 59.203 294.922 55.6255 293.623 52.5117L287.721 38.3633C286.422 35.2496 282.846 33.7787 279.734 35.078Z" fill="#8165C9"/>
<path d="M112.32 122.88C106.352 125.31 103.992 132.869 105.392 139.089C106.791 145.31 111.005 150.494 115.113 155.425L126.628 169.303C129.809 173.143 133.29 177.186 138.142 178.524C145.238 180.483 152.333 176.018 158.468 171.98C176.78 159.924 196.354 149.853 216.852 141.942C218.856 141.174 220.91 140.395 222.559 139.024C225.979 136.182 226.939 130.944 225.035 126.956C223.131 122.968 218.695 120.373 214.226 120.34C209.756 120.307 205.409 122.644 202.722 126.177C201.44 127.861 200.501 129.786 199.263 131.498C196.132 135.798 191.246 138.459 186.466 140.861C174.94 146.672 163.075 151.8 150.934 156.221C148.713 157.021 146.209 157.784 144.116 156.725C142.834 156.072 141.968 154.838 141.19 153.631C137.648 148.123 134.831 142.191 132.807 135.979C131.291 131.317 130.064 126.237 126.422 122.924C121.259 118.228 111.909 119.353 108.04 125.118C108.04 125.118 103.504 131.673 106.28 134.416C109.056 137.159 112.32 122.88 112.32 122.88Z" fill="#FBBEBE"/>
</svg>
