<svg width="101" height="106" viewBox="0 0 101 106" fill="none" xmlns="http://www.w3.org/2000/svg">
<g filter="url(#filter0_d)">
<path d="M32.868 22.546C38.016 22.546 41.91 24.592 44.55 28.684C47.19 32.776 48.51 37.924 48.51 44.128C48.51 50.332 46.97 55.986 43.89 61.09C40.854 66.15 37.334 68.68 33.33 68.68C30.514 68.68 28.446 67.096 27.126 63.928C25.806 60.76 24.948 56.25 24.552 50.398C22.704 52.994 20.592 55.942 18.216 59.242C13.64 65.578 10.428 68.746 8.58 68.746C7.876 68.746 7.062 68.174 6.138 67.03C5.214 65.886 4.752 64.456 4.752 62.74C4.752 60.98 5.346 55.546 6.534 46.438C7.722 37.286 8.316 30.158 8.316 25.054C8.316 23.426 8.8 22.612 9.768 22.612C10.736 22.612 11.858 23.184 13.134 24.328C14.454 25.472 15.114 26.528 15.114 27.496C15.114 28.42 14.366 33.062 12.87 41.422C11.418 49.782 10.516 56.338 10.164 61.09C12.848 56.558 15.862 52.378 19.206 48.55C22.594 44.678 25.014 42.742 26.466 42.742C27.962 42.742 28.996 46.042 29.568 52.642C29.788 55.106 30.206 57.372 30.822 59.44C31.482 61.508 32.362 62.542 33.462 62.542C35.926 62.542 38.06 60.562 39.864 56.602C41.712 52.598 42.636 48.176 42.636 43.336C42.636 37.968 41.448 33.832 39.072 30.928C37.84 29.388 36.476 28.618 34.98 28.618C33.528 28.618 32.274 28.112 31.218 27.1C30.206 26.088 29.7 25.208 29.7 24.46C29.7 23.184 30.756 22.546 32.868 22.546Z" fill="white"/>
<path d="M71.002 50.342H70.87C70.782 50.782 70.342 52.542 69.55 55.622C68.802 58.702 68.318 60.726 68.098 61.694C67.878 62.618 67.68 63.366 67.504 63.938C67.372 64.51 67.218 65.17 67.042 65.918C66.866 66.622 66.69 67.194 66.514 67.634C66.382 68.03 66.25 68.426 66.118 68.822C65.854 69.57 65.59 69.944 65.326 69.944C64.754 69.944 64.006 69.328 63.082 68.096C62.158 66.82 61.696 65.786 61.696 64.994C61.696 64.202 62.95 58.702 65.458 48.494C68.01 38.286 69.33 31.488 69.418 28.1C69.418 27.44 69.572 26.912 69.88 26.516C70.32 25.592 71.618 24.932 73.774 24.536C75.974 24.14 79.164 23.942 83.344 23.942C87.568 23.942 90.868 24.162 93.244 24.602C95.664 25.042 96.874 25.658 96.874 26.45C96.874 26.978 96.5 27.352 95.752 27.572C95.004 27.792 94.344 27.968 93.772 28.1C93.2 28.188 92.452 28.298 91.528 28.43C90.604 28.518 89.746 28.606 88.954 28.694C88.162 28.738 87.128 28.826 85.852 28.958C84.62 29.09 83.476 29.222 82.42 29.354C81.364 29.442 79.934 29.596 78.13 29.816C76.326 30.036 75.16 30.168 74.632 30.212C74.676 30.344 74.698 30.542 74.698 30.806C74.698 32.874 73.84 37.626 72.124 45.062C74.852 45.194 77.778 45.128 80.902 44.864C84.07 44.6 86.006 44.468 86.71 44.468C88.382 44.468 89.218 44.82 89.218 45.524C89.218 46.888 87.304 48.032 83.476 48.956C79.692 49.88 75.534 50.342 71.002 50.342Z" fill="white"/>
<path d="M58.6701 56.7002C67.6033 51.8754 85.5365 45.5493 85.8039 58.8424C86.0712 72.1355 67.8261 62.953 58.6701 56.7002Z" stroke="url(#paint0_linear)" stroke-opacity="0.6" stroke-width="5"/>
<path d="M58.067 57.5759C49.3191 62.3886 31.8042 68.8258 31.727 56.0732C31.6499 43.3205 49.2549 51.7614 58.067 57.5759Z" stroke="url(#paint1_linear)" stroke-opacity="0.6" stroke-width="5"/>
<path d="M57.6467 55.7002C66.5799 50.8754 84.5131 44.5493 84.7804 57.8424C85.0478 71.1355 66.8027 61.953 57.6467 55.7002Z" stroke="url(#paint2_linear)" stroke-width="5"/>
<path d="M57.0435 56.5759C48.2957 61.3886 30.7807 67.8258 30.7036 55.0732C30.6264 42.3205 48.2314 50.7614 57.0435 56.5759Z" stroke="url(#paint3_linear)" stroke-width="5"/>
<path d="M48 52C45.4545 51.4 44.5 49.5 42 49" stroke="white" stroke-width="7.8"/>
<path d="M68 62.5C65.8788 62 65.0833 60.5 63 60" stroke="white" stroke-width="7.8"/>
</g>
<defs>
<filter id="filter0_d" x="0.751953" y="22.546" width="100.122" height="55.398" filterUnits="userSpaceOnUse" color-interpolation-filters="sRGB">
<feFlood flood-opacity="0" result="BackgroundImageFix"/>
<feColorMatrix in="SourceAlpha" type="matrix" values="0 0 0 0 0 0 0 0 0 0 0 0 0 0 0 0 0 0 127 0"/>
<feOffset dy="4"/>
<feGaussianBlur stdDeviation="2"/>
<feColorMatrix type="matrix" values="0 0 0 0 0 0 0 0 0 0 0 0 0 0 0 0 0 0 0.2 0"/>
<feBlend mode="normal" in2="BackgroundImageFix" result="effect1_dropShadow"/>
<feBlend mode="normal" in="SourceGraphic" in2="effect1_dropShadow" result="shape"/>
</filter>
<linearGradient id="paint0_linear" x1="88.6525" y1="58.2453" x2="57.3341" y2="64.9291" gradientUnits="userSpaceOnUse">
<stop stop-color="#5C81E2"/>
<stop offset="1" stop-color="#C2C8E1"/>
</linearGradient>
<linearGradient id="paint1_linear" x1="28.9504" y1="56.7043" x2="59.647" y2="50.4822" gradientUnits="userSpaceOnUse">
<stop stop-color="#5C81E2"/>
<stop offset="1" stop-color="#C2C8E1"/>
</linearGradient>
<linearGradient id="paint2_linear" x1="87.6291" y1="57.2453" x2="56.3106" y2="63.9291" gradientUnits="userSpaceOnUse">
<stop stop-color="#5C81E2"/>
<stop offset="1" stop-color="#C2C8E1"/>
</linearGradient>
<linearGradient id="paint3_linear" x1="27.927" y1="55.7043" x2="58.6236" y2="49.4822" gradientUnits="userSpaceOnUse">
<stop stop-color="#5C81E2"/>
<stop offset="1" stop-color="#C2C8E1"/>
</linearGradient>
</defs>
</svg>
