<svg width="230" height="220" viewBox="0 0 230 220" fill="none" xmlns="http://www.w3.org/2000/svg">
<path d="M230 115C230 189.5 178.513 220 115 220C51.4873 220 0 178.513 0 115C0 34.5 51.4873 0 115 0C178.513 0 230 51.4873 230 115Z" fill="#C2C8E1"/>
<path d="M83.9937 53.5203C88.4838 78.7166 134.887 113.174 162.371 126.884C170.76 121.432 188.385 107.252 197.125 99.4632C229.243 70.8392 225.168 41.0124 224.449 34.5177C223.73 28.023 218.962 11.0267 196.164 7.63555C165 3.00002 160.85 23.4309 153.5 36.5001C149.825 30.5669 137.025 9.5 119.5 9.5C95.292 9.5 78.9999 25.4976 83.9937 53.5203Z" fill="#D65B5B"/>
<path d="M35 143.465C38.6256 160.655 69.9351 184.414 88.8011 193.825C94.5596 190.083 104.55 180.906 110 175C129.842 153.497 130.494 140.958 130 136.5C129.506 132.042 128.164 113.753 112.658 110.607C97.1921 107.47 88.4172 121.45 83.3716 130.421C80.8488 126.348 71.0297 114 59 114C42.3826 114 31 124.5 35 143.465Z" fill="#D65B5B"/>
</svg>
