<svg width="150" height="150" viewBox="0 0 150 150" fill="none" xmlns="http://www.w3.org/2000/svg">
<g clip-path="url(#clip0)">
<path d="M39.2182 23.5805C45.475 20.987 48.4448 13.8125 45.8514 7.55584C43.258 1.29914 36.0834 -1.67048 29.8266 0.922993C23.5697 3.51647 20.5999 10.691 23.1934 16.9476C25.7868 23.2043 32.9613 26.174 39.2182 23.5805Z" fill="white"/>
<path d="M64.6352 60.5967V42.359C64.5964 34.6783 58.2078 28.4296 50.394 28.4296C39.6613 28.4296 27.7422 28.4296 18.6348 28.4296C10.8336 28.4296 4.45559 34.6783 4.4165 42.3886V85.8501C4.4165 89.1173 7.06509 91.7658 10.3323 91.7658C13.5994 91.7658 16.248 89.1173 16.248 85.8501V42.4183C16.2536 41.2893 17.5228 40.2611 18.7661 40.2611V142.901C18.7661 146.822 21.9616 150 25.8826 150C29.8036 150 32.9818 146.822 32.9818 142.901V85.1225H36.0467V142.901C36.0467 146.822 39.2249 150 43.1459 150C47.0669 150 50.2768 146.822 50.2768 142.901V40.2611C51.5321 40.2611 52.7975 41.2893 52.8034 42.3886V62.2376C52.8034 63.3114 53.0958 64.3649 53.6488 65.2853L60.3198 76.3839C60.433 74.0897 61.3351 71.8237 63.0425 70.0288L67.493 65.3511L64.6352 60.5967Z" fill="white"/>
<path d="M107.817 28.2243C114.494 28.2243 119.907 22.8112 119.907 16.1339C119.907 9.45655 114.494 4.04349 107.817 4.04349C101.14 4.04349 95.7266 9.45655 95.7266 16.1339C95.7266 22.8112 101.14 28.2243 107.817 28.2243Z" fill="white"/>
<path d="M145.227 82.476C145.132 82.2141 135.606 56.1535 131.412 43.947C129.092 37.1993 124.997 32.0782 117.923 32.0782C115.624 32.0782 100.149 32.0782 97.7109 32.0782C91.4669 32.0782 86.9291 36.0715 84.2226 43.9476C82.8044 48.0743 79.8167 56.4397 78.7197 59.5047L66.0152 72.8581C63.7944 75.1923 63.8864 78.8847 66.2206 81.1054C68.555 83.3264 72.2474 83.2338 74.4681 80.9L88.0226 66.6532C88.5824 66.0649 89.0129 65.3661 89.2873 64.6015C89.3626 64.3919 90.188 63.9279 91.2392 60.9781C90.4513 65.5912 85.3701 93.4999 84.5829 98.1092C84.2373 100.103 85.7742 101.907 87.776 101.907H92.3056V142.902C92.3056 146.768 95.4397 149.902 99.3057 149.902C103.172 149.902 106.306 146.768 106.306 142.902V101.907H109.328V142.902C109.328 146.768 112.463 149.902 116.329 149.902C120.195 149.902 123.329 146.768 123.329 142.902V101.907H127.858C129.857 101.907 131.396 100.096 131.051 98.1092L124.738 60.9781C129.054 73.0515 134.201 86.2959 134.269 86.4825C135.379 89.5178 138.735 91.0615 141.751 89.958C144.777 88.8516 146.333 85.5019 145.227 82.476Z" fill="white"/>
</g>
<defs>
<clipPath id="clip0">
<rect width="150" height="150" fill="white"/>
</clipPath>
</defs>
</svg>
