<svg width="230" height="219" viewBox="0 0 230 219" fill="none" xmlns="http://www.w3.org/2000/svg">
<path d="M230 115C230 178.513 184.513 219 121 219C57.4873 219 0 188.5 0 115C0 51.4873 41 0 115 0C178.513 0 230 51.4873 230 115Z" fill="#C2C8E1"/>
<path d="M21.2202 65.9224L43.8152 182.251C44.7383 187.004 50.7718 188.88 54.7746 186.157C80.9992 168.315 117.621 174.24 126.328 175.991C127.592 176.245 128.879 176.132 130.118 175.772C132.168 175.176 135.827 174.353 140.751 174.204C141.782 174.172 142.791 173.915 143.691 173.413C155.551 166.794 178.307 155.209 212.127 161.305C216.525 162.098 220.561 158.267 219.639 153.894L195.038 37.208C194.542 34.852 192.696 32.9932 190.289 32.9396C173.905 32.5748 138.68 43.7864 120.817 60.4996C118.109 63.0339 113.557 63.2764 110.166 61.7725C93.2116 54.2534 53.1278 55.9262 26.3475 58.8846C22.9027 59.2652 20.5594 62.5202 21.2202 65.9224Z" fill="#D65B5B"/>
<path d="M29.9701 52.5094L49.7585 174.067C50.0223 175.687 52.0389 176.334 53.273 175.251C80.7383 151.159 125.458 164.387 132.196 166.572C132.764 166.756 133.335 166.694 133.857 166.403C139.316 163.364 172.012 146.429 209.711 154.311C211.136 154.609 212.441 153.372 212.167 151.942L188.543 28.8112C188.389 28.0099 187.77 27.3764 186.961 27.2685C171.418 25.1931 134.862 35.2306 117.888 54.5836C117.072 55.5131 115.623 55.5662 114.653 54.8005C101.171 44.1689 60.2135 46.677 31.6822 50.2096C30.5596 50.3486 29.7883 51.3929 29.9701 52.5094Z" fill="white" stroke="white"/>
<mask id="mask0" mask-type="alpha" maskUnits="userSpaceOnUse" x="29" y="26" width="184" height="151">
<path d="M29.9701 52.5094L49.7585 174.067C50.0223 175.687 52.0389 176.334 53.273 175.251C80.7383 151.159 125.458 164.387 132.196 166.572C132.764 166.756 133.335 166.694 133.857 166.403C139.316 163.364 172.012 146.429 209.711 154.311C211.136 154.609 212.441 153.372 212.167 151.942L188.543 28.8112C188.389 28.0099 187.77 27.3764 186.961 27.2685C171.418 25.1931 134.862 35.2306 117.888 54.5836C117.072 55.5131 115.623 55.5662 114.653 54.8005C101.171 44.1689 60.2135 46.677 31.6822 50.2096C30.5596 50.3486 29.7883 51.3929 29.9701 52.5094Z" fill="white" stroke="black"/>
</mask>
<g mask="url(#mask0)">
<path d="M133.057 166.746L114.894 48.9842L15.5519 41.5706L37.0512 194.661L133.057 166.746Z" fill="#E7E7E7"/>
</g>
<path d="M192.028 123.182C183.836 122.626 176.551 122.856 168.31 125.036C166.549 125.501 164.725 124.399 164.418 122.604L159.391 93.2808C159.161 91.9371 159.862 90.5979 161.127 90.0895C170.415 86.3571 178.972 86.0853 186.8 86.7796C188.11 86.8958 189.169 87.8809 189.417 89.1726L195.249 119.587C195.625 121.547 194.019 123.317 192.028 123.182Z" fill="#CACACA"/>
<path d="M45 82C75 75.9997 91 79.4997 91 79.4997M199.5 143.5C166 139.5 141.5 153 141.5 153M42 70.9997C71.9014 67.1694 86 66.4997 102.5 69.4998M39 61C68.9014 57.1697 79.5 56.5 108.5 61M197.5 134C164 130 139.5 143.5 139.5 143.5M188 80.5C171 78 157.5 85 157.5 85" stroke="#CACACA" stroke-width="5" stroke-linecap="round"/>
</svg>
