<svg width="150" height="150" viewBox="0 0 150 150" fill="none" xmlns="http://www.w3.org/2000/svg">
<path d="M23.4594 68.2998H40.2831C40.9621 68.2991 41.613 68.0291 42.0932 67.5491C42.5734 67.0691 42.8436 66.4182 42.8445 65.7392V60.0515C42.8445 59.5853 42.6593 59.1382 42.3297 58.8086C42 58.4789 41.5529 58.2937 41.0867 58.2937C40.6205 58.2937 40.1734 58.4789 39.8438 58.8086C39.5141 59.1382 39.3289 59.5853 39.3289 60.0515V64.7841H24.4136V49.8925H31.8711C32.3373 49.8925 32.7844 49.7074 33.1141 49.3777C33.4437 49.048 33.6289 48.6009 33.6289 48.1347C33.6289 47.6685 33.4437 47.2214 33.1141 46.8918C32.7844 46.5621 32.3373 46.3769 31.8711 46.3769H23.4594C22.7804 46.3775 22.1294 46.6475 21.6492 47.1275C21.169 47.6076 20.8988 48.2585 20.8979 48.9375V65.7392C20.8989 66.4182 21.1691 67.0691 21.6493 67.5491C22.1294 68.0291 22.7804 68.2991 23.4594 68.2998Z" fill="white"/>
<path d="M44.297 45.3905C44.1195 45.2429 43.9148 45.1316 43.6943 45.0631C43.4739 44.9946 43.2421 44.9701 43.0122 44.9912C42.7823 45.0122 42.5589 45.0784 42.3545 45.1858C42.1502 45.2932 41.969 45.4398 41.8214 45.6173L33.436 55.6934L30.7454 53.5163C30.5663 53.3679 30.3595 53.2566 30.137 53.1887C29.9145 53.1208 29.6808 53.0977 29.4493 53.1209C29.2179 53.144 28.9933 53.2128 28.7887 53.3233C28.584 53.4339 28.4033 53.5839 28.2571 53.7648C28.1108 53.9457 28.002 54.1538 27.9367 54.3771C27.8715 54.6003 27.8512 54.8343 27.8771 55.0655C27.903 55.2967 27.9745 55.5204 28.0875 55.7237C28.2004 55.927 28.3526 56.1059 28.5353 56.25L31.7696 58.8668C32.3011 59.304 32.9755 59.529 33.663 59.4986C34.3505 59.4682 35.0025 59.1845 35.4933 58.7021L35.5639 58.6345L44.524 47.8667C44.6718 47.6892 44.7831 47.4844 44.8516 47.2639C44.9202 47.0434 44.9446 46.8115 44.9235 46.5816C44.9024 46.3516 44.8362 46.1281 44.7287 45.9237C44.6212 45.7193 44.4745 45.5382 44.297 45.3905Z" fill="white"/>
<path d="M129.521 47.6022H60.9302C60.464 47.6022 60.0169 47.7874 59.6872 48.117C59.3576 48.4467 59.1724 48.8938 59.1724 49.36C59.1724 49.8262 59.3576 50.2733 59.6872 50.603C60.0169 50.9326 60.464 51.1178 60.9302 51.1178H129.521C129.988 51.1178 130.435 50.9326 130.764 50.603C131.094 50.2733 131.279 49.8262 131.279 49.36C131.279 48.8938 131.094 48.4467 130.764 48.117C130.435 47.7874 129.988 47.6022 129.521 47.6022Z" fill="white"/>
<path d="M129.521 62.1659H60.9302C60.464 62.1659 60.0169 62.3511 59.6872 62.6808C59.3576 63.0104 59.1724 63.4575 59.1724 63.9237C59.1724 64.3899 59.3576 64.837 59.6872 65.1667C60.0169 65.4964 60.464 65.6815 60.9302 65.6815H129.521C129.988 65.6815 130.435 65.4964 130.764 65.1667C131.094 64.837 131.279 64.3899 131.279 63.9237C131.279 63.4575 131.094 63.0104 130.764 62.6808C130.435 62.3511 129.988 62.1659 129.521 62.1659Z" fill="white"/>
<path d="M41.0867 95.55C40.6205 95.55 40.1734 95.7352 39.8438 96.0648C39.5141 96.3945 39.3289 96.8416 39.3289 97.3078V102.041H24.4136V87.1488H31.8711C32.3373 87.1488 32.7844 86.9636 33.1141 86.634C33.4437 86.3043 33.6289 85.8572 33.6289 85.391C33.6289 84.9248 33.4437 84.4777 33.1141 84.148C32.7844 83.8184 32.3373 83.6332 31.8711 83.6332H23.4594C22.7804 83.6339 22.1294 83.9038 21.6493 84.3839C21.1691 84.8639 20.8989 85.5148 20.8979 86.1937V102.995C20.8988 103.675 21.169 104.325 21.6492 104.806C22.1293 105.286 22.7804 105.556 23.4594 105.556H40.2831C40.9621 105.556 41.6131 105.286 42.0933 104.806C42.5735 104.325 42.8437 103.675 42.8445 102.995V97.3078C42.8445 96.8416 42.6593 96.3945 42.3297 96.0648C42 95.7352 41.5529 95.55 41.0867 95.55Z" fill="white"/>
<path d="M44.297 82.6465C44.1196 82.4989 43.9148 82.3876 43.6943 82.3191C43.4739 82.2506 43.2421 82.2262 43.0122 82.2473C42.7823 82.2684 42.5588 82.3345 42.3545 82.442C42.1502 82.5495 41.9691 82.6961 41.8214 82.8736L33.437 92.9493L30.7463 90.7726C30.5672 90.6245 30.3605 90.5134 30.1382 90.4457C29.9159 90.378 29.6823 90.3551 29.4511 90.3782C29.2198 90.4014 28.9955 90.4702 28.791 90.5806C28.5865 90.691 28.4059 90.8409 28.2597 91.0216C28.1135 91.2022 28.0046 91.4101 27.9393 91.6331C27.874 91.8562 27.8535 92.0899 27.8791 92.3209C27.9047 92.5519 27.9759 92.7755 28.0884 92.9788C28.201 93.1822 28.3528 93.3611 28.535 93.5054L31.7694 96.1222C32.3008 96.5593 32.9752 96.7844 33.6627 96.754C34.3502 96.7237 35.0021 96.4401 35.493 95.9578L35.5636 95.8899L44.5238 85.1221C44.6714 84.9447 44.7827 84.7399 44.8512 84.5194C44.9197 84.299 44.9442 84.0672 44.9231 83.8373C44.9021 83.6075 44.8359 83.384 44.7285 83.1797C44.6211 82.9753 44.4745 82.7942 44.297 82.6465Z" fill="white"/>
<path d="M129.521 84.8584H115.24C114.774 84.8584 114.326 85.0436 113.997 85.3732C113.667 85.7029 113.482 86.15 113.482 86.6162C113.482 87.0824 113.667 87.5295 113.997 87.8591C114.326 88.1888 114.774 88.374 115.24 88.374H129.521C129.988 88.374 130.435 88.1888 130.764 87.8591C131.094 87.5295 131.279 87.0824 131.279 86.6162C131.279 86.15 131.094 85.7029 130.764 85.3732C130.435 85.0436 129.988 84.8584 129.521 84.8584Z" fill="white"/>
<path d="M83.2072 84.8584H60.9302C60.464 84.8584 60.0169 85.0436 59.6872 85.3732C59.3576 85.7029 59.1724 86.15 59.1724 86.6162C59.1724 87.0824 59.3576 87.5295 59.6872 87.8591C60.0169 88.1888 60.464 88.374 60.9302 88.374H83.2072C83.6734 88.374 84.1205 88.1888 84.4502 87.8591C84.7798 87.5295 84.965 87.0824 84.965 86.6162C84.965 86.15 84.7798 85.7029 84.4502 85.3732C84.1205 85.0436 83.6734 84.8584 83.2072 84.8584Z" fill="white"/>
<path d="M66.934 99.4224H60.9302C60.464 99.4224 60.0169 99.6076 59.6872 99.9373C59.3576 100.267 59.1724 100.714 59.1724 101.18C59.1724 101.646 59.3576 102.094 59.6872 102.423C60.0169 102.753 60.464 102.938 60.9302 102.938H66.934C67.4002 102.938 67.8473 102.753 68.1769 102.423C68.5066 102.094 68.6918 101.646 68.6918 101.18C68.6918 100.714 68.5066 100.267 68.1769 99.9373C67.8473 99.6076 67.4002 99.4224 66.934 99.4224Z" fill="white"/>
<path d="M138.388 2.92969H11.6121C9.46568 2.93194 7.40779 3.78552 5.88993 5.30316C4.37206 6.82081 3.51818 8.87857 3.51562 11.025V116.084C3.51756 118.228 4.36956 120.284 5.88491 121.802C7.40025 123.319 9.45535 124.174 11.5998 124.179L78.6419 124.653L82.038 137.998C82.0439 138.022 82.0506 138.046 82.0576 138.069C82.8256 140.677 84.4197 142.965 86.6 144.588C88.7804 146.211 91.429 147.082 94.1473 147.07H118.657C122.004 147.066 125.212 145.734 127.579 143.367C129.945 141 131.276 137.79 131.279 134.443V124.57L138.439 124.18C140.577 124.164 142.621 123.304 144.128 121.788C145.635 120.272 146.482 118.222 146.484 116.084V11.025C146.482 8.87857 145.628 6.82081 144.11 5.30316C142.592 3.78552 140.534 2.93194 138.388 2.92969ZM11.6121 6.44531H138.388C139.602 6.44648 140.767 6.92931 141.625 7.78789C142.484 8.64646 142.967 9.81064 142.969 11.025V28.8226H7.03125V11.025C7.03272 9.81064 7.51586 8.64646 8.37465 7.78789C9.23344 6.92931 10.3978 6.44648 11.6121 6.44531ZM127.764 134.443C127.761 136.858 126.801 139.174 125.094 140.882C123.387 142.59 121.072 143.551 118.657 143.555H94.1473C92.1922 143.563 90.2869 142.939 88.7165 141.774C87.1461 140.61 85.995 138.968 85.4355 137.094L81.7149 122.472C80.8377 119.029 79.6676 115.667 78.2174 112.423L77.9297 111.741C79.8028 111.741 81.648 112.195 83.3065 113.066C84.9651 113.937 86.3874 115.197 87.4512 116.739L90.474 121.118V127.646C90.474 128.113 90.6592 128.56 90.9889 128.889C91.3185 129.219 91.7656 129.404 92.2318 129.404C92.698 129.404 93.1451 129.219 93.4748 128.889C93.8045 128.56 93.9896 128.113 93.9896 127.646V79.8718C93.9896 78.9949 94.338 78.1538 94.9581 77.5338C95.5782 76.9137 96.4192 76.5653 97.2961 76.5653C98.173 76.5653 99.014 76.9137 99.6341 77.5338C100.254 78.1538 100.603 78.9949 100.603 79.8718V111.075C100.603 111.247 100.628 111.417 100.678 111.582V118.748C100.678 119.214 100.863 119.661 101.192 119.991C101.522 120.32 101.969 120.505 102.435 120.505C102.902 120.505 103.349 120.32 103.678 119.991C104.008 119.661 104.193 119.214 104.193 118.748V108.93C104.193 108.234 104.469 107.568 104.961 107.076C105.453 106.584 106.12 106.308 106.815 106.308C107.511 106.308 108.178 106.584 108.669 107.076C109.161 107.568 109.437 108.234 109.437 108.93V110.922C109.392 111.229 109.369 111.539 109.369 111.849V118.749C109.369 119.215 109.554 119.662 109.884 119.992C110.213 120.321 110.66 120.507 111.127 120.507H111.161C111.161 120.507 111.183 120.507 111.195 120.507C111.661 120.507 112.108 120.321 112.438 119.992C112.768 119.662 112.953 119.215 112.953 118.749V111.236C113.102 110.557 113.498 109.957 114.063 109.551C114.628 109.145 115.323 108.963 116.015 109.039C116.707 109.115 117.346 109.443 117.81 109.962C118.274 110.48 118.53 111.152 118.528 111.848V120.571C118.528 121.037 118.714 121.484 119.043 121.814C119.373 122.143 119.82 122.329 120.286 122.329C120.752 122.329 121.2 122.143 121.529 121.814C121.859 121.484 122.044 121.037 122.044 120.571V114.603C122.04 114.225 122.111 113.85 122.253 113.499C122.395 113.149 122.605 112.83 122.871 112.562C123.137 112.293 123.454 112.08 123.803 111.934C124.151 111.789 124.526 111.714 124.904 111.714C125.282 111.714 125.656 111.789 126.005 111.934C126.353 112.08 126.67 112.293 126.936 112.562C127.202 112.83 127.412 113.149 127.554 113.499C127.696 113.85 127.767 114.225 127.763 114.603L127.764 134.443ZM138.388 120.665C138.357 120.665 138.325 120.665 138.293 120.668L131.279 121.049V114.604C131.281 113.46 130.974 112.338 130.392 111.353C129.81 110.369 128.974 109.56 127.972 109.01C126.969 108.461 125.837 108.191 124.694 108.23C123.551 108.269 122.44 108.614 121.477 109.23C121.107 108.414 120.569 107.685 119.896 107.092C119.224 106.499 118.434 106.055 117.577 105.791C116.721 105.526 115.818 105.446 114.928 105.557C114.039 105.667 113.183 105.966 112.417 106.432C112.083 105.677 111.601 104.998 110.998 104.435C110.396 103.873 109.685 103.438 108.91 103.157C108.135 102.875 107.31 102.754 106.487 102.8C105.664 102.846 104.858 103.058 104.119 103.424V79.8718C104.119 78.0625 103.4 76.3272 102.121 75.0478C100.841 73.7685 99.106 73.0497 97.2967 73.0497C95.4874 73.0497 93.7521 73.7685 92.4727 75.0478C91.1934 76.3272 90.4746 78.0625 90.4746 79.8718V114.929L90.3451 114.742C88.9581 112.731 87.1035 111.088 84.9408 109.953C82.7782 108.818 80.3722 108.225 77.9297 108.225C77.3411 108.225 76.7619 108.372 76.2449 108.654C75.7278 108.935 75.2893 109.341 74.9692 109.835C74.6492 110.329 74.4578 110.895 74.4126 111.482C74.3673 112.069 74.4695 112.657 74.71 113.195L75.0061 113.857C76.0617 116.22 76.9602 118.65 77.6956 121.131L11.6109 120.663C10.397 120.661 9.23325 120.178 8.37475 119.32C7.51626 118.462 7.03311 117.298 7.03125 116.084V32.3382H142.969V116.084C142.967 117.299 142.484 118.463 141.625 119.321C140.766 120.18 139.602 120.663 138.388 120.664L138.388 120.665Z" fill="white"/>
<path d="M18.2227 24.1497C19.5554 24.1497 20.8581 23.7545 21.9662 23.0141C23.0743 22.2737 23.938 21.2213 24.448 19.99C24.958 18.7588 25.0915 17.4039 24.8315 16.0968C24.5715 14.7897 23.9297 13.5891 22.9873 12.6467C22.045 11.7043 20.8443 11.0626 19.5372 10.8026C18.2301 10.5426 16.8753 10.676 15.644 11.186C14.4128 11.696 13.3604 12.5597 12.62 13.6678C11.8796 14.7759 11.4844 16.0787 11.4844 17.4114C11.4862 19.1979 12.1968 20.9108 13.46 22.174C14.7233 23.4373 16.4361 24.1478 18.2227 24.1497ZM18.2227 14.1911C18.86 14.1911 19.4831 14.3801 20.0131 14.7342C20.543 15.0883 20.9561 15.5916 21.2 16.1805C21.4439 16.7693 21.5077 17.4173 21.3834 18.0424C21.259 18.6676 20.9521 19.2418 20.5014 19.6925C20.0507 20.1432 19.4765 20.4501 18.8514 20.5745C18.2262 20.6988 17.5783 20.635 16.9894 20.3911C16.4005 20.1472 15.8972 19.7341 15.5431 19.2042C15.189 18.6742 15 18.0511 15 17.4137C15.0008 16.5593 15.3406 15.74 15.9448 15.1358C16.5489 14.5316 17.3682 14.1919 18.2227 14.1911Z" fill="white"/>
<path d="M35.9863 24.1497C37.319 24.1497 38.6218 23.7545 39.7299 23.0141C40.838 22.2737 41.7017 21.2213 42.2117 19.99C42.7217 18.7588 42.8551 17.4039 42.5951 16.0968C42.3351 14.7897 41.6934 13.5891 40.751 12.6467C39.8086 11.7043 38.608 11.0626 37.3009 10.8026C35.9938 10.5426 34.639 10.676 33.4077 11.186C32.1764 11.696 31.1241 12.5597 30.3837 13.6678C29.6432 14.7759 29.248 16.0787 29.248 17.4114C29.2499 19.1979 29.9604 20.9108 31.2237 22.174C32.487 23.4373 34.1998 24.1478 35.9863 24.1497ZM35.9863 14.1911C36.6237 14.1911 37.2468 14.3801 37.7767 14.7342C38.3067 15.0883 38.7198 15.5916 38.9637 16.1805C39.2076 16.7693 39.2714 17.4173 39.1471 18.0424C39.0227 18.6676 38.7158 19.2418 38.2651 19.6925C37.8144 20.1432 37.2402 20.4501 36.615 20.5745C35.9899 20.6988 35.3419 20.635 34.7531 20.3911C34.1642 20.1472 33.6609 19.7341 33.3068 19.2042C32.9527 18.6742 32.7637 18.0511 32.7637 17.4137C32.7644 16.5593 33.1042 15.74 33.7084 15.1358C34.3126 14.5316 35.1319 14.1919 35.9863 14.1911Z" fill="white"/>
<path d="M53.75 24.1497C55.0827 24.1497 56.3855 23.7545 57.4936 23.0141C58.6017 22.2737 59.4654 21.2213 59.9754 19.99C60.4854 18.7588 60.6188 17.4039 60.3588 16.0968C60.0988 14.7897 59.457 13.5891 58.5147 12.6467C57.5723 11.7043 56.3717 11.0626 55.0646 10.8026C53.7575 10.5426 52.4026 10.676 51.1714 11.186C49.9401 11.696 48.8877 12.5597 48.1473 13.6678C47.4069 14.7759 47.0117 16.0787 47.0117 17.4114C47.0136 19.1979 47.7241 20.9108 48.9874 22.174C50.2506 23.4373 51.9635 24.1478 53.75 24.1497ZM53.75 14.1911C54.3874 14.1911 55.0104 14.3801 55.5404 14.7342C56.0704 15.0883 56.4834 15.5916 56.7273 16.1805C56.9713 16.7693 57.0351 17.4173 56.9107 18.0424C56.7864 18.6676 56.4795 19.2418 56.0288 19.6925C55.5781 20.1432 55.0038 20.4501 54.3787 20.5745C53.7536 20.6988 53.1056 20.635 52.5167 20.3911C51.9279 20.1472 51.4246 19.7341 51.0705 19.2042C50.7163 18.6742 50.5273 18.0511 50.5273 17.4137C50.5281 16.5593 50.8679 15.74 51.4721 15.1358C52.0763 14.5316 52.8955 14.1919 53.75 14.1911Z" fill="white"/>
<path d="M79.9805 18.8379H137.09C137.556 18.8379 138.003 18.6527 138.333 18.323C138.662 17.9934 138.848 17.5463 138.848 17.08C138.848 16.6138 138.662 16.1667 138.333 15.8371C138.003 15.5074 137.556 15.3222 137.09 15.3222H79.9805C79.5143 15.3222 79.0672 15.5074 78.7375 15.8371C78.4079 16.1667 78.2227 16.6138 78.2227 17.08C78.2227 17.5463 78.4079 17.9934 78.7375 18.323C79.0672 18.6527 79.5143 18.8379 79.9805 18.8379Z" fill="white"/>
</svg>
