<svg width="200" height="150" viewBox="0 0 200 150" fill="none" xmlns="http://www.w3.org/2000/svg">
<g clip-path="url(#clip0)">
<path d="M113.581 67.9753C65.9416 67.9753 27.2017 85.0388 27.2017 106V106.126L10.0974 94.7919C8.42374 93.6783 4.99471 93.3729 2.46376 94.1094C-0.0671865 94.8458 -0.761156 96.3546 0.912535 97.4682L25.7322 113.903C26.6302 114.496 28.059 114.873 29.651 114.963C29.896 114.981 30.1001 114.981 30.345 114.981C31.6921 114.981 32.9984 114.765 34.019 114.352L68.5133 100.683C70.7585 99.7852 70.9626 98.2585 68.9216 97.2526C66.8805 96.2647 63.4106 96.1749 61.1246 97.073L38.2236 106.18V106C38.2236 87.6971 72.024 72.8249 113.581 72.8249C155.137 72.8249 188.978 87.6971 188.978 106C188.978 124.303 155.178 139.175 113.621 139.175C93.4962 139.175 74.555 135.726 60.349 129.458C58.1854 128.506 54.7156 128.506 52.552 129.458C50.3885 130.41 50.3885 131.936 52.552 132.888C68.8807 140.073 90.5571 144.025 113.621 144.025C161.22 144.025 200 126.979 200 106C200 85.0208 161.22 67.9753 113.581 67.9753Z" fill="#71B7E6"/>
</g>
<g clip-path="url(#clip1)">
<path d="M80.2182 23.5805C86.475 20.987 89.4448 13.8125 86.8514 7.55584C84.258 1.29914 77.0834 -1.67048 70.8266 0.922993C64.5697 3.51647 61.5999 10.691 64.1934 16.9476C66.7868 23.2043 73.9613 26.174 80.2182 23.5805Z" fill="white"/>
<path d="M105.635 60.5967V42.359C105.596 34.6783 99.2078 28.4296 91.394 28.4296C80.6613 28.4296 68.7422 28.4296 59.6348 28.4296C51.8336 28.4296 45.4556 34.6783 45.4165 42.3886V85.8501C45.4165 89.1173 48.0651 91.7658 51.3323 91.7658C54.5994 91.7658 57.248 89.1173 57.248 85.8501V42.4183C57.2536 41.2893 58.5228 40.2611 59.7661 40.2611V142.901C59.7661 146.822 62.9616 150 66.8826 150C70.8036 150 73.9818 146.822 73.9818 142.901V85.1225H77.0467V142.901C77.0467 146.822 80.2249 150 84.1459 150C88.0669 150 91.2768 146.822 91.2768 142.901V40.2611C92.5321 40.2611 93.7975 41.2893 93.8034 42.3886V62.2376C93.8034 63.3114 94.0958 64.3649 94.6488 65.2853L101.32 76.3839C101.433 74.0897 102.335 71.8237 104.042 70.0288L108.493 65.3511L105.635 60.5967Z" fill="white"/>
<path d="M148.817 28.2243C155.494 28.2243 160.907 22.8112 160.907 16.1339C160.907 9.45655 155.494 4.04349 148.817 4.04349C142.14 4.04349 136.727 9.45655 136.727 16.1339C136.727 22.8112 142.14 28.2243 148.817 28.2243Z" fill="white"/>
<path d="M186.227 82.476C186.132 82.2141 176.606 56.1535 172.412 43.947C170.092 37.1993 165.997 32.0782 158.923 32.0782C156.624 32.0782 141.149 32.0782 138.711 32.0782C132.467 32.0782 127.929 36.0715 125.223 43.9476C123.804 48.0743 120.817 56.4397 119.72 59.5047L107.015 72.8581C104.794 75.1923 104.886 78.8847 107.221 81.1054C109.555 83.3264 113.247 83.2338 115.468 80.9L129.023 66.6532C129.582 66.0649 130.013 65.3661 130.287 64.6015C130.363 64.3919 131.188 63.9279 132.239 60.9781C131.451 65.5912 126.37 93.4999 125.583 98.1092C125.237 100.103 126.774 101.907 128.776 101.907H133.306V142.902C133.306 146.768 136.44 149.902 140.306 149.902C144.172 149.902 147.306 146.768 147.306 142.902V101.907H150.328V142.902C150.328 146.768 153.463 149.902 157.329 149.902C161.195 149.902 164.329 146.768 164.329 142.902V101.907H168.858C170.857 101.907 172.396 100.096 172.051 98.1092L165.738 60.9781C170.054 73.0515 175.201 86.2959 175.269 86.4825C176.379 89.5178 179.735 91.0615 182.751 89.958C185.777 88.8516 187.333 85.5019 186.227 82.476Z" fill="white"/>
</g>
<defs>
<clipPath id="clip0">
<rect width="200" height="88" fill="white" transform="translate(0 62)"/>
</clipPath>
<clipPath id="clip1">
<rect width="150" height="150" fill="white" transform="translate(41)"/>
</clipPath>
</defs>
</svg>
